<svg width="563" height="96" viewBox="0 0 563 96" fill="none" xmlns="http://www.w3.org/2000/svg">
<path d="M47.6992 4.40137C44.0117 4.40137 40.2666 4.80469 36.4639 5.61133C32.6995 6.37956 28.7432 7.81999 24.5947 9.93262C20.4847 12.0452 16.8548 14.7148 13.7051 17.9414C10.5553 21.168 7.96257 25.4701 5.92676 30.8477C3.89095 36.1868 2.87305 42.2367 2.87305 48.9971C2.87305 55.7575 3.89095 61.8265 5.92676 67.2041C7.96257 72.5433 10.5553 76.807 13.7051 79.9951C16.8548 83.1449 20.4847 85.776 24.5947 87.8887C28.7432 89.9629 32.6995 91.3841 36.4639 92.1523C40.2666 92.959 44.0117 93.3623 47.6992 93.3623C53.4993 93.3623 58.7041 92.8053 63.3135 91.6914C67.9229 90.6159 73.1468 88.9258 78.9854 86.6211C77.2568 81.8965 76.3926 75.9235 76.3926 68.7021V60.1748C76.3926 57.3708 82.7881 55.527 95.5791 54.6436C96.0016 53.7217 96.0016 52.819 95.5791 51.9355C85.5153 52.2428 77.6602 52.3965 72.0137 52.3965C67.2891 52.3965 60.6055 52.2428 51.9629 51.9355C51.694 52.819 51.694 53.7217 51.9629 54.6436C60.8359 55.527 65.2725 57.3708 65.2725 60.1748V83.5674C61.9691 87.3317 56.1113 89.2139 47.6992 89.2139C43.2051 89.2139 39.1143 88.388 35.4268 86.7363C31.7393 85.0846 28.6855 82.9144 26.2656 80.2256C23.8841 77.4984 21.8867 74.3486 20.2734 70.7764C18.6602 67.2041 17.4886 63.6126 16.7588 60.002C16.0674 56.3529 15.7217 52.6846 15.7217 48.9971C15.7217 44.2725 16.2979 39.6631 17.4502 35.1689C18.641 30.6364 20.4271 26.3343 22.8086 22.2627C25.2285 18.1527 28.5703 14.8301 32.834 12.2949C37.1361 9.75977 42.0911 8.49219 47.6992 8.49219C51.4635 8.49219 54.959 9.08757 58.1855 10.2783C61.4121 11.4691 64.0625 12.8711 66.1367 14.4844C68.2493 16.0977 70.2852 18.2679 72.2441 20.9951C74.2031 23.6839 75.682 26.027 76.6807 28.0244C77.7178 29.9834 78.9469 32.4801 80.3682 35.5146C81.5589 35.361 82.2695 34.9385 82.5 34.2471C79.6576 22.8389 75.3555 15.0221 69.5938 10.7969C63.8704 6.5332 56.5723 4.40137 47.6992 4.40137ZM78.9854 38.1074C77.3337 34.4199 75.8164 31.3854 74.4336 29.0039C73.0508 26.584 71.1878 23.8952 68.8447 20.9375C66.54 17.9414 63.7936 15.6175 60.6055 13.9658C57.4173 12.3141 53.8643 11.3154 49.9463 10.9697C45.4521 11.2386 41.4958 12.6022 38.0771 15.0605C34.6585 17.4805 32.0081 20.5918 30.126 24.3945C28.2438 28.1973 26.8418 32.1729 25.9199 36.3213C24.998 40.4313 24.5371 44.6566 24.5371 48.9971C24.5371 54.9893 25.3438 60.7126 26.957 66.167C28.5703 71.6214 31.3936 76.4421 35.4268 80.6289C39.4984 84.7773 44.4919 86.8516 50.4072 86.8516C55.9001 86.8516 60.0677 85.4495 62.9102 82.6455V60.1748C62.9102 58.8688 58.6273 57.7741 50.0615 56.8906C49.0244 54.2018 49.1012 51.7243 50.292 49.458C61.777 49.9958 77.6602 50.111 97.9414 49.8037C98.8249 52.1084 98.8633 54.4707 98.0566 56.8906C89.4909 57.7741 85.208 58.8688 85.208 60.1748V68.7021C85.208 75.693 86.3027 82.1462 88.4922 88.0615C83.0762 90.0973 79.043 91.4993 76.3926 92.2676C73.7806 93.0742 69.9779 93.8424 64.9844 94.5723C59.9909 95.3405 54.2292 95.7246 47.6992 95.7246C43.7428 95.7246 39.7865 95.3021 35.8301 94.457C31.8737 93.6504 27.7253 92.1523 23.3848 89.9629C19.0443 87.735 15.2223 84.9502 11.9189 81.6084C8.61556 78.2666 5.88835 73.7917 3.7373 68.1836C1.58626 62.5371 0.510742 56.1416 0.510742 48.9971C0.510742 41.8525 1.56706 35.4762 3.67969 29.8682C5.79232 24.2217 8.48112 19.7083 11.7461 16.3281C15.0111 12.9479 18.7754 10.1439 23.0391 7.91602C27.3411 5.64974 31.4512 4.11328 35.3691 3.30664C39.3255 2.46159 43.2819 2.03906 47.2383 2.03906C53.6146 2.03906 60.6823 2.8457 68.4414 4.45898C76.2389 6.07227 81.194 6.99414 83.3066 7.22461C82.0775 12.1797 81.5973 16.5394 81.8662 20.3037C82.1351 24.0296 83.2106 28.6006 85.0928 34.0166C83.9788 36.2829 81.943 37.6465 78.9854 38.1074ZM126.059 58.5615C127.019 55.0277 128.997 51.5898 131.993 48.248C134.989 44.9062 138.043 43.2354 141.154 43.2354C144.803 43.2354 146.628 44.4069 146.628 46.75C146.628 48.8626 145.629 50.207 143.632 50.7832C143.094 51.5514 143.094 52.4541 143.632 53.4912C145.706 53.4912 147.396 52.8574 148.702 51.5898C150.047 50.3223 150.719 48.5553 150.719 46.2891C150.719 43.9076 149.989 42.0446 148.529 40.7002C147.108 39.3174 145.245 38.626 142.94 38.626C139.944 38.626 136.929 39.8359 133.895 42.2559C130.898 44.6374 128.286 47.307 126.059 50.2646V40.3545C125.751 39.7399 125.098 39.2406 124.1 38.8564C118.952 41.2764 112.999 42.8512 106.238 43.5811C106.008 44.5029 106.008 45.4056 106.238 46.2891C111.424 46.5195 115.131 47.307 117.358 48.6514C117.666 62.9788 117.627 74.4639 117.243 83.1064C117.166 85.9489 113.901 87.7926 107.448 88.6377C106.872 89.6748 106.872 90.5775 107.448 91.3457C117.512 90.8848 128.479 90.8848 140.348 91.3457C140.885 90.5775 140.885 89.6748 140.348 88.6377C131.244 87.7926 126.654 85.9489 126.577 83.1064C126.231 75.3089 126.059 67.1273 126.059 58.5615ZM134.701 82.9912C134.778 84.4893 137.371 85.6608 142.479 86.5059C143.747 89.041 143.67 91.4801 142.249 93.8232C125.963 93.2855 113.652 93.1702 105.316 93.4775C103.895 91.2113 103.818 88.8874 105.086 86.5059C111.539 85.6608 114.804 84.4893 114.881 82.9912C115.342 72.0439 115.38 61.0583 114.996 50.0342C112.461 49.266 108.965 48.7666 104.51 48.5361C103.626 46.2314 103.626 43.7923 104.51 41.2188C110.924 40.8346 117.723 39.1061 124.906 36.0332C129.055 36.4941 132.166 37.7425 134.24 39.7783C137.467 37.4352 140.367 36.2637 142.94 36.2637C145.937 36.2637 148.376 37.1471 150.258 38.9141C152.14 40.681 153.081 43.1393 153.081 46.2891C153.081 49.2852 152.198 51.6283 150.431 53.3184C148.664 55.0085 146.397 55.8535 143.632 55.8535C141.058 55.8535 138.907 54.9893 137.179 53.2607C135.604 55.3734 134.624 57.2939 134.24 59.0225C134.24 67.3577 134.394 75.3473 134.701 82.9912ZM203.496 77.0566C203.803 67.4538 203.803 57.8317 203.496 48.1904C203.496 46.846 200.596 45.6937 194.796 44.7334C193.912 42.3903 193.912 40.0664 194.796 37.7617H219.687C220.762 38.1842 221.53 38.6452 221.991 39.1445C222.491 39.6439 222.932 40.3737 223.316 41.334C223.316 42.0254 223.22 43.1201 223.028 44.6182C222.836 46.1162 222.74 47.307 222.74 48.1904C222.356 60.8278 222.356 71.8327 222.74 81.2051C225.506 82.0885 228.425 82.6071 231.498 82.7607C232.343 85.027 232.343 87.4661 231.498 90.0781C226.466 90.3854 220.243 92.1139 212.83 95.2637C208.643 94.9564 205.532 93.6888 203.496 91.4609V89.9629C198.234 93.3431 191.992 95.0332 184.771 95.0332C179.547 95.0332 175.84 93.612 173.65 90.7695C171.461 87.9271 170.328 83.4714 170.251 77.4023C170.328 67.7611 170.328 58.0238 170.251 48.1904C170.251 46.846 167.332 45.6937 161.493 44.7334C160.648 42.3903 160.648 40.0664 161.493 37.7617H186.499C187.613 38.1842 188.4 38.6452 188.861 39.1445C189.361 39.6439 189.802 40.3737 190.187 41.334C190.187 42.0254 190.09 43.1201 189.898 44.6182C189.706 46.1162 189.61 47.307 189.61 48.1904C189.341 57.1403 189.341 66.263 189.61 75.5586C189.764 79.9375 190.551 82.4919 191.973 83.2217C194.777 82.4919 198.618 80.4368 203.496 77.0566ZM205.858 48.1904C206.089 58.1774 206.089 68.2028 205.858 78.2666C198.714 83.3753 193.202 85.9297 189.322 85.9297C184.06 85.9297 181.429 82.4727 181.429 75.5586C181.198 66.263 181.198 57.1403 181.429 48.1904C181.429 47.1533 181.525 45.9049 181.717 44.4453C181.947 42.9857 182.062 42.0638 182.062 41.6797C181.64 40.7962 181.083 40.2008 180.392 39.8936C174.707 40.2777 169.041 40.2777 163.395 39.8936C163.087 40.777 163.087 41.6797 163.395 42.6016C169.464 43.5618 172.536 45.4248 172.613 48.1904C172.69 57.9469 172.69 67.6842 172.613 77.4023C172.536 82.6263 173.439 86.4867 175.321 88.9834C177.203 91.4417 180.353 92.6709 184.771 92.6709C190.571 92.6709 197.6 89.0794 205.858 81.8965V90.3086C206.166 90.9232 206.838 91.4225 207.875 91.8066C213.368 89.7708 220.493 88.4072 229.251 87.7158C229.558 86.7555 229.558 85.8529 229.251 85.0078C222.644 84.7389 217.766 83.9515 214.616 82.6455C214.309 68.9326 214.309 57.4476 214.616 48.1904C214.616 47.1533 214.712 45.9049 214.904 44.4453C215.096 42.9857 215.192 42.0638 215.192 41.6797C214.808 40.7962 214.251 40.2008 213.521 39.8936C207.952 40.2008 202.325 40.2008 196.64 39.8936C196.332 40.777 196.332 41.6797 196.64 42.6016C202.709 43.5618 205.782 45.4248 205.858 48.1904ZM272.003 46.1738C276.574 46.1738 280.031 48.0176 282.374 51.7051C284.756 55.3926 285.946 60.0788 285.946 65.7637C285.946 74.099 284.467 80.0335 281.51 83.5674C278.552 87.1012 275.345 88.8682 271.888 88.8682C265.703 88.8682 261.113 86.5827 258.117 82.0117C257.964 74.3294 257.887 64.2656 257.887 51.8203C262.266 48.056 266.971 46.1738 272.003 46.1738ZM238.066 8.14648C237.874 9.33724 237.874 10.2399 238.066 10.8545C243.252 11.1234 246.939 11.9108 249.129 13.2168C249.436 41.8717 249.436 65.9173 249.129 85.3535C254.967 90.2318 261.901 92.6709 269.929 92.6709C274.461 92.6709 278.456 91.7682 281.913 89.9629C285.409 88.1191 288.136 85.7376 290.095 82.8184C292.054 79.8607 293.513 76.7109 294.474 73.3691C295.472 70.0273 295.972 66.5895 295.972 63.0557C295.972 55.5654 294.262 49.6309 290.844 45.252C287.425 40.8346 283.008 38.626 277.592 38.626C270.908 38.626 264.34 41.526 257.887 47.3262V4.97754C257.541 4.36296 256.869 3.8444 255.87 3.42188C250.761 5.88021 244.827 7.45508 238.066 8.14648ZM256.677 0.598633C260.864 0.905924 263.975 2.1735 266.011 4.40137V39.3174C270.006 37.2816 275.229 36.2637 281.683 36.2637C288.289 36.2637 293.667 38.6836 297.815 43.5234C302.002 48.3633 304.096 54.874 304.096 63.0557C304.096 66.8968 303.539 70.6227 302.425 74.2334C301.349 77.8441 299.659 81.2435 297.354 84.4316C295.088 87.6198 291.938 90.1742 287.905 92.0947C283.91 94.0537 279.282 95.0332 274.02 95.0332C262.842 95.0332 253.757 92.1523 246.767 86.3906C247.228 62.9596 247.228 39.0485 246.767 14.6572C244.27 13.8506 240.774 13.332 236.28 13.1016C235.397 10.6048 235.435 8.2041 236.396 5.89941C243.233 5.28483 249.993 3.5179 256.677 0.598633ZM283.584 65.7637C283.584 61.2695 282.758 57.4284 281.106 54.2402C279.455 51.0521 277.016 49.2275 273.789 48.7666C271.1 49.1507 268.507 50.4759 266.011 52.7422C266.011 64.3424 266.088 73.9069 266.241 81.4355C267.97 84.278 270.447 85.9297 273.674 86.3906C276.363 85.776 278.687 83.8363 280.646 80.5713C282.604 77.3063 283.584 72.3704 283.584 65.7637ZM381.13 83.1064C381.13 85.9489 376.693 87.7926 367.82 88.6377C367.513 89.2523 367.513 90.1549 367.82 91.3457C374.35 91.1152 381.034 91 387.871 91C396.053 91 403.927 91.1152 411.494 91.3457C411.801 90.6543 411.801 89.7516 411.494 88.6377C398.742 87.8695 392.327 86.0257 392.25 83.1064C391.827 73.5804 391.616 62.1722 391.616 48.8818C391.616 35.5146 391.827 24.068 392.25 14.542C392.327 11.6227 398.742 9.77897 411.494 9.01074C411.878 8.05046 411.878 7.14779 411.494 6.30273C401.392 6.61003 393.518 6.76367 387.871 6.76367C383.146 6.76367 376.463 6.61003 367.82 6.30273C367.59 7.22461 367.59 8.12728 367.82 9.01074C376.617 9.85579 381.053 11.6995 381.13 14.542C381.36 21.6097 381.552 32.2689 381.706 46.5195C374.638 46.75 367.955 46.8652 361.655 46.8652C351.131 46.8652 343.506 46.7884 338.781 46.6348C338.781 33.7285 339.012 23.0309 339.473 14.542C339.549 11.6227 345.964 9.77897 358.717 9.01074C358.947 8.28092 358.947 7.37826 358.717 6.30273C348.653 6.61003 340.779 6.76367 335.094 6.76367C330.408 6.76367 323.724 6.61003 315.043 6.30273C314.736 6.99414 314.736 7.89681 315.043 9.01074C323.878 9.85579 328.333 11.6995 328.41 14.542C328.794 23.5687 328.986 34.3047 328.986 46.75C328.986 58.9264 328.756 71.0452 328.295 83.1064C328.218 85.9489 323.762 87.7926 314.928 88.6377C314.62 89.2523 314.62 90.1549 314.928 91.3457C321.458 91.1152 328.141 91 334.979 91C343.16 91 351.035 91.1152 358.602 91.3457C358.909 90.7311 358.909 89.8285 358.602 88.6377C345.849 87.8695 339.434 86.0257 339.357 83.1064C338.973 71.5446 338.781 60.7318 338.781 50.668C348.23 50.4759 355.855 50.3799 361.655 50.3799C367.955 50.3799 374.638 50.5143 381.706 50.7832C381.629 59.349 381.437 70.1234 381.13 83.1064ZM378.768 83.1064C379.075 67.8187 379.267 58.1774 379.344 54.1826C371.815 54.029 365.919 53.9521 361.655 53.9521C358.352 53.9521 355.26 53.9714 352.379 54.0098C349.536 54.0482 347.962 54.0674 347.654 54.0674C347.654 62.9404 347.846 72.5817 348.23 82.9912C348.23 83.2217 348.307 83.4521 348.461 83.6826C348.615 83.9131 348.883 84.1051 349.268 84.2588C349.652 84.4124 350.036 84.5853 350.42 84.7773C350.842 84.931 351.361 85.0846 351.976 85.2383C352.629 85.3919 353.205 85.5264 353.704 85.6416C354.203 85.7568 354.837 85.8721 355.605 85.9873C356.412 86.1025 357.046 86.1986 357.507 86.2754C358.006 86.3522 358.659 86.429 359.466 86.5059C360.311 86.5827 360.887 86.6595 361.194 86.7363C361.809 88.8874 361.694 91.2497 360.849 93.8232C346.675 93.516 338.051 93.3623 334.979 93.3623C332.943 93.3623 325.721 93.516 313.314 93.8232C312.354 91.1729 312.354 88.6953 313.314 86.3906C321.65 85.5456 325.856 84.4124 325.933 82.9912C326.394 70.93 326.624 58.8496 326.624 46.75C326.624 34.3815 326.432 23.6839 326.048 14.6572C325.971 13.236 321.688 12.1029 313.199 11.2578C312.546 8.79948 312.623 6.32194 313.43 3.8252C316.81 3.8252 321.381 3.92122 327.143 4.11328C332.943 4.30534 336.976 4.40137 339.242 4.40137C340.894 4.40137 344.082 4.36296 348.807 4.28613C353.531 4.20931 357.622 4.1709 361.079 4.1709C361.771 6.36035 361.809 8.72266 361.194 11.2578C352.705 12.1029 348.423 13.236 348.346 14.6572C347.885 25.2588 347.654 35.1689 347.654 44.3877C351.342 44.6182 356.009 44.6566 361.655 44.5029L379.344 44.2725C379.19 31.7503 378.998 21.8786 378.768 14.6572C378.691 13.236 374.408 12.1029 365.919 11.2578C365.228 8.56901 365.304 6.09147 366.149 3.8252C371.719 4.20931 379.267 4.40137 388.793 4.40137C390.598 4.40137 394.267 4.36296 399.798 4.28613C405.368 4.20931 410.035 4.1709 413.799 4.1709C414.529 6.36035 414.586 8.72266 413.972 11.2578C405.444 12.1029 401.142 13.236 401.065 14.6572C400.681 24.1833 400.489 35.5915 400.489 48.8818C400.489 62.0954 400.681 73.4652 401.065 82.9912C401.142 84.4124 405.444 85.5456 413.972 86.3906C414.586 88.849 414.49 91.3265 413.684 93.8232C401.277 93.516 394.055 93.3623 392.02 93.3623C388.947 93.3623 380.323 93.516 366.149 93.8232C365.228 91.1729 365.228 88.6953 366.149 86.3906C374.562 85.5456 378.768 84.4508 378.768 83.1064ZM462.312 77.0566C462.62 67.4538 462.62 57.8317 462.312 48.1904C462.312 46.846 459.412 45.6937 453.612 44.7334C452.729 42.3903 452.729 40.0664 453.612 37.7617H478.503C479.578 38.1842 480.347 38.6452 480.808 39.1445C481.307 39.6439 481.749 40.3737 482.133 41.334C482.133 42.0254 482.037 43.1201 481.845 44.6182C481.653 46.1162 481.557 47.307 481.557 48.1904C481.173 60.8278 481.173 71.8327 481.557 81.2051C484.322 82.0885 487.242 82.6071 490.314 82.7607C491.16 85.027 491.16 87.4661 490.314 90.0781C485.283 90.3854 479.06 92.1139 471.646 95.2637C467.46 94.9564 464.348 93.6888 462.312 91.4609V89.9629C457.05 93.3431 450.808 95.0332 443.587 95.0332C438.363 95.0332 434.656 93.612 432.467 90.7695C430.277 87.9271 429.144 83.4714 429.067 77.4023C429.144 67.7611 429.144 58.0238 429.067 48.1904C429.067 46.846 426.148 45.6937 420.31 44.7334C419.465 42.3903 419.465 40.0664 420.31 37.7617H445.315C446.429 38.1842 447.217 38.6452 447.678 39.1445C448.177 39.6439 448.619 40.3737 449.003 41.334C449.003 42.0254 448.907 43.1201 448.715 44.6182C448.523 46.1162 448.427 47.307 448.427 48.1904C448.158 57.1403 448.158 66.263 448.427 75.5586C448.58 79.9375 449.368 82.4919 450.789 83.2217C453.593 82.4919 457.434 80.4368 462.312 77.0566ZM464.675 48.1904C464.905 58.1774 464.905 68.2028 464.675 78.2666C457.53 83.3753 452.018 85.9297 448.139 85.9297C442.876 85.9297 440.245 82.4727 440.245 75.5586C440.015 66.263 440.015 57.1403 440.245 48.1904C440.245 47.1533 440.341 45.9049 440.533 44.4453C440.764 42.9857 440.879 42.0638 440.879 41.6797C440.456 40.7962 439.899 40.2008 439.208 39.8936C433.523 40.2777 427.857 40.2777 422.211 39.8936C421.904 40.777 421.904 41.6797 422.211 42.6016C428.28 43.5618 431.353 45.4248 431.43 48.1904C431.507 57.9469 431.507 67.6842 431.43 77.4023C431.353 82.6263 432.256 86.4867 434.138 88.9834C436.02 91.4417 439.17 92.6709 443.587 92.6709C449.387 92.6709 456.416 89.0794 464.675 81.8965V90.3086C464.982 90.9232 465.654 91.4225 466.691 91.8066C472.184 89.7708 479.31 88.4072 488.067 87.7158C488.375 86.7555 488.375 85.8529 488.067 85.0078C481.461 84.7389 476.582 83.9515 473.433 82.6455C473.125 68.9326 473.125 57.4476 473.433 48.1904C473.433 47.1533 473.529 45.9049 473.721 44.4453C473.913 42.9857 474.009 42.0638 474.009 41.6797C473.625 40.7962 473.068 40.2008 472.338 39.8936C466.768 40.2008 461.141 40.2008 455.456 39.8936C455.149 40.777 455.149 41.6797 455.456 42.6016C461.525 43.5618 464.598 45.4248 464.675 48.1904ZM530.819 46.1738C535.39 46.1738 538.847 48.0176 541.19 51.7051C543.572 55.3926 544.763 60.0788 544.763 65.7637C544.763 74.099 543.284 80.0335 540.326 83.5674C537.368 87.1012 534.161 88.8682 530.704 88.8682C524.52 88.8682 519.93 86.5827 516.934 82.0117C516.78 74.3294 516.703 64.2656 516.703 51.8203C521.082 48.056 525.787 46.1738 530.819 46.1738ZM496.883 8.14648C496.691 9.33724 496.691 10.2399 496.883 10.8545C502.068 11.1234 505.756 11.9108 507.945 13.2168C508.253 41.8717 508.253 65.9173 507.945 85.3535C513.784 90.2318 520.717 92.6709 528.745 92.6709C533.278 92.6709 537.272 91.7682 540.729 89.9629C544.225 88.1191 546.952 85.7376 548.911 82.8184C550.87 79.8607 552.33 76.7109 553.29 73.3691C554.289 70.0273 554.788 66.5895 554.788 63.0557C554.788 55.5654 553.079 49.6309 549.66 45.252C546.242 40.8346 541.824 38.626 536.408 38.626C529.725 38.626 523.156 41.526 516.703 47.3262V4.97754C516.357 4.36296 515.685 3.8444 514.687 3.42188C509.578 5.88021 503.643 7.45508 496.883 8.14648ZM515.493 0.598633C519.68 0.905924 522.791 2.1735 524.827 4.40137V39.3174C528.822 37.2816 534.046 36.2637 540.499 36.2637C547.106 36.2637 552.483 38.6836 556.632 43.5234C560.819 48.3633 562.912 54.874 562.912 63.0557C562.912 66.8968 562.355 70.6227 561.241 74.2334C560.166 77.8441 558.476 81.2435 556.171 84.4316C553.905 87.6198 550.755 90.1742 546.722 92.0947C542.727 94.0537 538.098 95.0332 532.836 95.0332C521.658 95.0332 512.574 92.1523 505.583 86.3906C506.044 62.9596 506.044 39.0485 505.583 14.6572C503.086 13.8506 499.591 13.332 495.097 13.1016C494.213 10.6048 494.252 8.2041 495.212 5.89941C502.049 5.28483 508.81 3.5179 515.493 0.598633ZM542.4 65.7637C542.4 61.2695 541.575 57.4284 539.923 54.2402C538.271 51.0521 535.832 49.2275 532.605 48.7666C529.917 49.1507 527.324 50.4759 524.827 52.7422C524.827 64.3424 524.904 73.9069 525.058 81.4355C526.786 84.278 529.264 85.9297 532.49 86.3906C535.179 85.776 537.503 83.8363 539.462 80.5713C541.421 77.3063 542.4 72.3704 542.4 65.7637Z" fill="black"/>
</svg>
