<svg width="175" height="46" viewBox="0 0 175 46" fill="none" xmlns="http://www.w3.org/2000/svg">
<path d="M12.1 46C11.98 45.96 11.86 45.92 11.74 45.88C11.62 45.88 11.48 45.88 11.32 45.88V45.82C11.16 45.82 11.02 45.78 10.9 45.7C10.78 45.66 10.68 45.68 10.6 45.76C10.32 45.64 10.02 45.58 9.7 45.58C9.38 45.58 9.08 45.5 8.8 45.34C8.68 45.38 8.38 45.3 7.9 45.1C7.46 44.94 7.12 44.84 6.88 44.8L6.76 44.68H6.52C6.36 44.52 6.26 44.46 6.22 44.5C6.1 44.34 5.96 44.22 5.8 44.14C5.68 44.06 5.56 43.98 5.44 43.9C5.36 43.82 5.3 43.74 5.26 43.66C5.22 43.58 5.14 43.56 5.02 43.6C5.02 43.52 4.84 43.32 4.48 43C4.16 42.68 3.94 42.44 3.82 42.28L3.64 42.22C3.28 41.94 3.08 41.7 3.04 41.5C3 41.34 2.92 41.16 2.8 40.96C2.68 40.76 2.3 40.48 1.66 40.12C1.5 39.92 1.28 39.72 1 39.52C0.72 39.32 0.56 39.12 0.52 38.92L0.46 38.56C0.58 38.6 0.8 38.78 1.12 39.1C1.44 39.46 1.76 39.74 2.08 39.94L2.2 40.06H2.38C2.38 39.94 2.38 39.84 2.38 39.76C2.42 39.68 2.44 39.62 2.44 39.58C2.44 39.3 2.4 39.16 2.32 39.16C2.28 39.16 2.22 39.08 2.14 38.92C2.14 38.88 2.14 38.84 2.14 38.8C2.18 38.76 2.2 38.72 2.2 38.68C2.16 38.6 2.1 38.5 2.02 38.38C1.98 38.3 1.98 38.2 2.02 38.08C2.02 38 2.04 37.92 2.08 37.84C2.16 37.8 2.22 37.76 2.26 37.72L2.32 37C2.32 36.92 2.36 36.84 2.44 36.76C2.52 36.68 2.54 36.6 2.5 36.52L2.92 35.8C2.96 35.72 2.96 35.64 2.92 35.56C2.92 35.52 2.94 35.48 2.98 35.44C3.06 35.36 3.12 35.24 3.16 35.08C3.2 34.96 3.3 34.86 3.46 34.78C3.54 34.7 3.62 34.62 3.7 34.54C3.78 34.46 3.9 34.4 4.06 34.36C4.18 34.2 4.4 34.08 4.72 34C4.8 33.96 4.86 33.96 4.9 34C4.94 34.08 4.92 34.18 4.84 34.3C4.6 34.5 4.42 34.62 4.3 34.66H4.18L4 35.08L3.82 35.2C3.82 35.28 3.88 35.36 4 35.44V35.68L3.28 36.82C3.32 36.94 3.34 37.1 3.34 37.3C3.34 37.46 3.32 37.6 3.28 37.72C3.28 37.88 3.26 38.04 3.22 38.2C3.22 38.24 3.2 38.26 3.16 38.26C3.16 38.3 3.16 38.36 3.16 38.44C3.16 38.56 3.18 38.7 3.22 38.86C3.26 39.06 3.28 39.22 3.28 39.34H3.46C3.5 39.38 3.54 39.42 3.58 39.46C3.62 39.5 3.64 39.56 3.64 39.64L3.58 39.7L3.82 40.18L3.76 40.3C3.76 40.34 3.78 40.38 3.82 40.42C3.9 40.46 3.96 40.5 4 40.54C3.96 40.66 4.02 40.8 4.18 40.96L4.3 41.08C4.58 41.24 4.82 41.34 5.02 41.38C5.22 41.46 5.48 41.54 5.8 41.62C6.56 41.86 7.2 42.02 7.72 42.1C8.24 42.18 8.78 42.22 9.34 42.22C9.58 42.22 9.84 42.22 10.12 42.22C10.44 42.22 10.76 42.2 11.08 42.16C11.44 42.16 12.04 42.14 12.88 42.1C13.76 42.06 14.36 41.98 14.68 41.86C14.72 41.86 14.74 41.84 14.74 41.8C14.78 41.76 14.82 41.74 14.86 41.74H14.98C15.42 41.74 15.82 41.66 16.18 41.5C16.58 41.38 16.98 41.28 17.38 41.2C17.7 41.08 18.02 40.94 18.34 40.78C18.7 40.62 19.06 40.5 19.42 40.42C19.7 40.34 20.08 40.18 20.56 39.94C21.04 39.74 21.5 39.5 21.94 39.22C22.42 38.98 22.74 38.78 22.9 38.62C23.18 38.54 23.52 38.36 23.92 38.08C24.32 37.8 24.7 37.5 25.06 37.18C25.42 36.86 25.64 36.6 25.72 36.4C25.92 36.4 26.04 36.26 26.08 35.98C26.12 35.74 26.14 35.58 26.14 35.5C26.34 35.26 26.42 35.12 26.38 35.08C26.34 35.04 26.34 34.94 26.38 34.78C26.46 34.66 26.56 34.52 26.68 34.36C26.8 34.2 26.82 34.06 26.74 33.94C26.82 33.86 26.88 33.78 26.92 33.7C27 33.62 27.08 33.56 27.16 33.52L27.52 33.34C27.6 33.26 27.62 33.18 27.58 33.1C27.58 32.98 27.7 32.82 27.94 32.62L28 32.38C28 32.3 28.04 32.22 28.12 32.14C28.4 31.58 28.66 30.9 28.9 30.1C29.18 29.3 29.46 28.7 29.74 28.3C29.86 28.1 29.94 27.88 29.98 27.64C30.06 27.36 30.12 27.1 30.16 26.86C30.24 26.7 30.38 26.56 30.58 26.44C30.78 26.32 30.84 26.18 30.76 26.02C30.64 26.02 30.58 25.94 30.58 25.78C30.58 25.58 30.66 25.36 30.82 25.12C30.98 24.84 31.04 24.64 31 24.52L31.66 22.78L30.4 23.8C30.24 23.92 30.1 24.02 29.98 24.1C29.86 24.14 29.72 24.2 29.56 24.28C29.32 24.44 29.12 24.64 28.96 24.88C28.8 25.08 28.6 25.28 28.36 25.48C27.72 26 27.02 26.48 26.26 26.92C25.54 27.36 24.82 27.8 24.1 28.24C23.82 28.4 23.5 28.62 23.14 28.9C22.78 29.14 22.4 29.3 22 29.38C21.76 29.46 21.54 29.54 21.34 29.62C21.14 29.66 20.94 29.8 20.74 30.04L20.14 30.28C20.02 30.16 19.9 30.1 19.78 30.1C19.62 30.1 19.48 30.16 19.36 30.28C19.28 30.36 19.2 30.46 19.12 30.58C18.8 30.86 18.16 31.16 17.2 31.48C16.28 31.8 15.58 32.02 15.1 32.14C14.94 32.1 14.58 32.18 14.02 32.38C13.46 32.54 13.02 32.6 12.7 32.56C12.5 32.4 12.32 32.32 12.16 32.32C12 32.32 11.82 32.42 11.62 32.62C10.34 32.74 9.08 32.58 7.84 32.14C6.64 31.7 5.6 31.06 4.72 30.22C3.84 29.38 3.26 28.42 2.98 27.34C3.02 27.22 3.04 27.08 3.04 26.92C3.04 26.68 2.96 26.46 2.8 26.26C2.76 26.06 2.72 25.84 2.68 25.6C2.68 25.36 2.68 25.12 2.68 24.88C2.68 23.6 2.88 22.32 3.28 21.04C3.72 19.72 4.24 18.52 4.84 17.44C5.28 17.2 5.5 16.88 5.5 16.48C6.38 15.12 7.4 13.88 8.56 12.76C8.88 12.68 9.12 12.58 9.28 12.46C9.48 12.3 9.56 12.08 9.52 11.8C9.96 11.48 10.38 11.14 10.78 10.78C11.22 10.42 11.64 10.1 12.04 9.82C12.48 9.74 12.78 9.5 12.94 9.1C13.5 8.74 14.08 8.42 14.68 8.14C15.28 7.82 15.9 7.52 16.54 7.24H16.66C16.86 7.24 17.02 7.2 17.14 7.12C17.26 7 17.4 6.88 17.56 6.76C17.6 6.72 17.78 6.64 18.1 6.52C18.46 6.36 18.82 6.22 19.18 6.1C19.58 5.98 19.84 5.9 19.96 5.86H20.14C20.38 5.86 20.66 5.78 20.98 5.62C21.74 5.38 22.8 5.16 24.16 4.96C25.52 4.72 26.78 4.6 27.94 4.6C28.22 4.6 28.48 4.62 28.72 4.66C29 4.66 29.24 4.68 29.44 4.72C29.64 4.76 29.74 4.82 29.74 4.9C29.78 4.98 29.82 5.04 29.86 5.08H29.98C30.06 5.08 30.14 5.06 30.22 5.02C30.3 4.94 30.4 4.9 30.52 4.9C30.72 4.9 30.96 4.94 31.24 5.02C31.56 5.06 31.8 5.12 31.96 5.2C32.04 5.4 32.16 5.52 32.32 5.56C32.52 5.56 32.7 5.62 32.86 5.74C33.22 5.94 33.52 6.2 33.76 6.52C34 6.8 34.12 7.12 34.12 7.48V7.9C34.12 8.3 34.04 8.62 33.88 8.86C33.76 9.06 33.62 9.16 33.46 9.16C33.18 9.16 33.04 8.92 33.04 8.44L32.8 7.42C32.8 7.22 32.74 7.06 32.62 6.94C32.5 6.82 32.36 6.68 32.2 6.52C32.16 6.28 32.02 6.16 31.78 6.16C31.58 6.16 31.36 6.14 31.12 6.1L30.94 5.86C30.74 5.78 30.52 5.72 30.28 5.68C30.08 5.64 29.84 5.6 29.56 5.56C29.44 5.44 29.28 5.38 29.08 5.38C28.88 5.38 28.66 5.44 28.42 5.56C27.34 5.6 26.3 5.82 25.3 6.22C25.26 6.22 25.2 6.24 25.12 6.28C25.08 6.28 25.02 6.28 24.94 6.28L24.34 6.22C24.22 6.22 24.06 6.28 23.86 6.4C23.74 6.44 23.68 6.5 23.68 6.58C23.68 6.66 23.64 6.74 23.56 6.82C23.28 7.02 22.94 7.18 22.54 7.3C22.14 7.38 21.78 7.5 21.46 7.66C21.34 7.7 21.22 7.76 21.1 7.84C21.02 7.88 20.94 7.94 20.86 8.02C20.66 8.14 20.42 8.26 20.14 8.38C19.9 8.46 19.66 8.56 19.42 8.68L19.48 8.44C19.04 8.6 18.68 8.86 18.4 9.22C18.2 9.38 18.02 9.48 17.86 9.52C17.7 9.52 17.52 9.52 17.32 9.52C17.28 9.56 17.26 9.64 17.26 9.76C17.3 9.84 17.28 9.92 17.2 10C16.76 10.4 16.18 10.76 15.46 11.08C14.78 11.4 14.24 11.78 13.84 12.22C13.64 12.46 13.28 12.76 12.76 13.12C12.24 13.44 11.82 13.76 11.5 14.08C11.3 14.24 10.94 14.58 10.42 15.1C9.9 15.62 9.34 16.2 8.74 16.84C8.14 17.48 7.62 18.08 7.18 18.64C6.74 19.2 6.52 19.58 6.52 19.78C6.12 20.42 5.74 21.12 5.38 21.88C5.02 22.64 4.82 23.38 4.78 24.1C4.74 24.3 4.64 24.44 4.48 24.52C4.36 24.6 4.3 24.72 4.3 24.88V24.94C4.3 25.02 4.38 25.06 4.54 25.06C4.7 25.02 4.76 25.1 4.72 25.3C4.72 25.38 4.72 25.52 4.72 25.72C4.76 25.88 4.78 26.06 4.78 26.26C4.78 26.86 4.7 27.18 4.54 27.22C4.5 27.26 4.48 27.32 4.48 27.4C4.48 27.56 4.58 27.66 4.78 27.7C5.02 27.7 5.18 27.78 5.26 27.94C5.78 28.82 6.44 29.46 7.24 29.86C8.08 30.22 9 30.44 10 30.52C10.12 30.56 10.16 30.64 10.12 30.76C10.12 30.84 10.24 30.88 10.48 30.88C10.56 30.88 10.66 30.88 10.78 30.88C10.9 30.84 11.04 30.8 11.2 30.76C11.28 30.8 11.36 30.84 11.44 30.88C11.52 30.92 11.58 30.94 11.62 30.94C11.78 30.94 11.92 30.84 12.04 30.64C12.12 30.6 12.42 30.54 12.94 30.46C13.46 30.38 13.72 30.34 13.72 30.34C13.84 30.5 13.98 30.58 14.14 30.58C14.22 30.58 14.32 30.54 14.44 30.46C14.56 30.34 14.66 30.26 14.74 30.22C16.46 29.78 18.12 29.28 19.72 28.72C19.88 28.76 20.24 28.64 20.8 28.36C21.4 28.08 21.8 27.9 22 27.82C22.2 27.86 22.5 27.76 22.9 27.52C23.3 27.24 23.58 27.06 23.74 26.98C23.98 26.94 24.18 26.86 24.34 26.74C24.54 26.62 24.72 26.52 24.88 26.44C25 26.48 25.28 26.36 25.72 26.08C26.2 25.8 26.7 25.46 27.22 25.06C27.78 24.62 28.28 24.24 28.72 23.92C29.2 23.56 29.5 23.32 29.62 23.2C29.74 23.08 29.9 22.98 30.1 22.9C30.3 22.82 30.46 22.72 30.58 22.6C30.66 22.52 30.82 22.32 31.06 22C31.3 21.68 31.54 21.38 31.78 21.1C32.02 20.78 32.16 20.58 32.2 20.5C32.8 19.34 33.56 18.46 34.48 17.86C35.4 17.22 36.58 16.9 38.02 16.9C38.26 16.9 38.52 16.92 38.8 16.96C39.08 16.96 39.36 16.98 39.64 17.02C39.88 17.02 40 17.08 40 17.2C40 17.44 39.8 17.56 39.4 17.56C38.6 17.6 37.88 17.92 37.24 18.52C36.64 19.08 36.14 19.74 35.74 20.5C35.38 21.22 35.08 21.86 34.84 22.42C34.8 22.46 34.72 22.64 34.6 22.96C34.48 23.24 34.42 23.4 34.42 23.44C34.26 23.6 34.06 23.76 33.82 23.92C33.58 24.08 33.62 24.3 33.94 24.58C33.78 24.86 33.56 25.2 33.28 25.6C33 25.96 32.92 26.3 33.04 26.62C32.84 27.06 32.58 27.46 32.26 27.82C31.98 28.14 31.88 28.56 31.96 29.08C31.96 29.08 31.8 29.44 31.48 30.16C31.16 30.88 30.84 31.58 30.52 32.26C30.72 31.94 31.04 31.58 31.48 31.18C31.92 30.74 32.28 30.44 32.56 30.28C32.84 30.12 33.04 30.04 33.16 30.04C33.28 30.04 33.34 30.1 33.34 30.22C33.34 30.66 33.08 31.06 32.56 31.42C32.44 31.5 32.14 31.76 31.66 32.2C31.18 32.64 30.72 33.08 30.28 33.52C29.84 33.96 29.6 34.22 29.56 34.3L29.44 34.36C29.24 34.52 28.98 34.78 28.66 35.14C28.38 35.5 28.26 35.8 28.3 36.04C28.26 36.04 28.06 36.26 27.7 36.7C27.38 37.18 27.18 37.46 27.1 37.54C27.06 37.58 27.04 37.64 27.04 37.72C27.08 37.8 27.06 37.88 26.98 37.96C26.94 38.04 26.88 38.12 26.8 38.2C26.72 38.28 26.64 38.36 26.56 38.44C26.6 38.6 26.58 38.68 26.5 38.68C26.42 38.72 26.34 38.78 26.26 38.86C26.1 39.02 25.98 39.22 25.9 39.46C25.86 39.7 25.74 39.9 25.54 40.06C25.5 40.1 25.44 40.12 25.36 40.12C25.28 40.12 25.22 40.14 25.18 40.18C25.1 40.26 25.04 40.36 25 40.48C24.96 40.6 24.92 40.7 24.88 40.78C24.76 40.98 24.48 41.24 24.04 41.56C23.6 41.92 23.28 42.22 23.08 42.46C22.92 42.5 22.7 42.62 22.42 42.82C22.3 42.86 22.06 42.98 21.7 43.18C21.38 43.42 21.2 43.58 21.16 43.66C21.08 43.7 20.96 43.72 20.8 43.72C20.68 43.76 20.58 43.82 20.5 43.9C20.26 44.3 19.82 44.56 19.18 44.68C19.14 44.68 19.1 44.7 19.06 44.74C19.02 44.78 18.96 44.82 18.88 44.86C18.8 44.9 18.68 44.92 18.52 44.92C18.28 44.92 18.14 44.96 18.1 45.04C18.06 45.12 17.96 45.18 17.8 45.22C17.4 45.3 17 45.4 16.6 45.52C16.2 45.68 15.76 45.76 15.28 45.76H15.16C15.08 45.76 14.96 45.74 14.8 45.7C14.68 45.7 14.58 45.7 14.5 45.7C14.22 45.7 13.9 45.74 13.54 45.82C13.18 45.94 12.84 46 12.52 46C12.48 46 12.42 45.98 12.34 45.94C12.3 45.9 12.24 45.9 12.16 45.94C12.16 45.94 12.14 45.94 12.1 45.94C12.1 45.94 12.1 45.96 12.1 46ZM11.68 45.28C12.04 45.12 12.5 45.02 13.06 44.98C13.62 44.94 14.12 44.88 14.56 44.8L15.4 44.86C15.84 44.74 16.26 44.52 16.66 44.2C17.1 43.92 17.5 43.76 17.86 43.72C17.94 43.72 18 43.68 18.04 43.6C18.12 43.56 18.18 43.52 18.22 43.48L18.58 43.42C18.78 43.14 18.98 43 19.18 43C19.42 43 19.62 42.9 19.78 42.7C19.86 42.66 19.92 42.62 19.96 42.58C20 42.58 20.04 42.58 20.08 42.58C20.08 42.54 20.2 42.4 20.44 42.16C20.68 41.96 20.82 41.86 20.86 41.86H21.16C21.36 41.86 21.52 41.76 21.64 41.56C21.76 41.36 21.84 41.2 21.88 41.08C21.96 41.04 22.08 41.02 22.24 41.02L22.3 40.78C22.42 40.7 22.6 40.6 22.84 40.48C23.08 40.36 23.26 40.3 23.38 40.3L23.32 39.94C23.36 39.86 23.4 39.78 23.44 39.7C23.52 39.66 23.58 39.6 23.62 39.52C23.7 39.48 23.84 39.32 24.04 39.04C24.24 38.8 24.34 38.64 24.34 38.56C24.18 38.56 24.1 38.56 24.1 38.56C24.14 38.56 24.06 38.58 23.86 38.62C23.78 38.74 23.46 38.96 22.9 39.28C22.34 39.6 21.78 39.9 21.22 40.18C20.66 40.46 20.3 40.62 20.14 40.66C19.94 40.7 19.74 40.76 19.54 40.84C19.34 40.96 19.12 41.06 18.88 41.14C18.68 41.18 18.5 41.26 18.34 41.38C18.18 41.5 17.98 41.56 17.74 41.56C17.66 41.6 17.58 41.64 17.5 41.68C17.46 41.76 17.4 41.8 17.32 41.8C17.28 41.84 17.22 41.84 17.14 41.8C17.06 41.76 16.98 41.74 16.9 41.74C16.82 41.74 16.76 41.78 16.72 41.86C16.72 41.94 16.68 42 16.6 42.04C16.44 42.08 16.32 42.08 16.24 42.04C16.16 42.04 16.04 42.12 15.88 42.28L15.7 42.22C15.54 42.26 15.42 42.32 15.34 42.4C15.26 42.48 15.12 42.54 14.92 42.58C14.84 42.46 14.76 42.44 14.68 42.52C14.68 42.56 14.66 42.58 14.62 42.58L13.96 42.76C13.64 42.84 13.24 42.84 12.76 42.76C12.32 42.72 11.96 42.74 11.68 42.82C11.64 42.86 11.62 42.9 11.62 42.94C11.62 42.98 11.58 43 11.5 43H11.38L11.26 43.12L11.02 43C10.86 43.04 10.72 43.06 10.6 43.06C10.48 43.06 10.34 43.06 10.18 43.06C10.06 42.94 9.96 42.9 9.88 42.94C9.76 42.86 9.52 42.8 9.16 42.76C8.84 42.72 8.6 42.7 8.44 42.7C8.12 42.62 7.9 42.6 7.78 42.64C7.62 42.72 7.3 42.64 6.82 42.4C6.38 42.2 6.06 42.14 5.86 42.22L5.32 41.92L5.14 41.98C5.18 42.02 5.18 42.06 5.14 42.1C5.14 42.14 5.16 42.2 5.2 42.28C5.2 42.32 5.3 42.42 5.5 42.58C5.74 42.74 5.88 42.88 5.92 43C6.04 43.04 6.14 43.1 6.22 43.18C6.3 43.3 6.38 43.36 6.46 43.36C6.58 43.44 6.72 43.52 6.88 43.6C7.08 43.72 7.26 43.82 7.42 43.9L7.54 44.08C7.62 44.12 7.72 44.16 7.84 44.2C7.96 44.24 8.04 44.3 8.08 44.38C8.2 44.42 8.32 44.46 8.44 44.5C8.56 44.54 8.66 44.6 8.74 44.68H8.92C9.12 44.8 9.4 44.9 9.76 44.98C10.16 45.1 10.42 45.12 10.54 45.04C10.66 45.08 10.86 45.14 11.14 45.22C11.46 45.3 11.64 45.32 11.68 45.28ZM38.6191 33.88C38.2191 33.88 37.7991 33.8 37.3591 33.64C36.9191 33.44 36.7591 33.22 36.8791 32.98C37.0391 32.66 37.2191 32.34 37.4191 32.02C37.6591 31.66 37.8791 31.28 38.0791 30.88L38.7391 29.62C38.8191 29.42 38.8991 29.28 38.9791 29.2C39.0991 29.08 39.1991 28.94 39.2791 28.78C39.3191 28.74 39.3391 28.64 39.3391 28.48C39.3391 28.28 39.4191 28.06 39.5791 27.82C39.7791 27.54 39.9191 27.28 39.9991 27.04C40.0391 27 40.0791 27.12 40.1191 27.4C40.1591 27.68 40.2591 27.66 40.4191 27.34C40.4591 27.3 40.4391 27.24 40.3591 27.16C40.3191 27.08 40.2991 27 40.2991 26.92C40.2991 26.84 40.3191 26.8 40.3591 26.8C40.4391 26.76 40.4791 26.72 40.4791 26.68C40.5191 26.56 40.4791 26.52 40.3591 26.56C40.2791 26.56 40.2391 26.54 40.2391 26.5C40.3191 26.38 40.3991 26.3 40.4791 26.26C40.5991 26.22 40.6791 26.16 40.7191 26.08C40.7191 26 40.6791 25.96 40.5991 25.96C40.5591 25.92 40.5591 25.88 40.5991 25.84C40.7991 25.28 41.0191 24.62 41.2591 23.86C41.4991 23.1 41.6791 22.4 41.7991 21.76C41.7991 21.76 41.7591 21.74 41.6791 21.7C41.5991 21.62 41.5591 21.54 41.5591 21.46L41.1391 21.16C40.6591 21.6 40.1391 21.98 39.5791 22.3C39.5391 22.34 39.4591 22.36 39.3391 22.36C39.1791 22.36 39.0791 22.28 39.0391 22.12C38.9991 21.96 39.0591 21.82 39.2191 21.7C39.4191 21.58 39.5791 21.5 39.6991 21.46C39.8191 21.38 39.9591 21.26 40.1191 21.1C40.1991 21.02 40.2391 20.94 40.2391 20.86C40.2791 20.78 40.3191 20.7 40.3591 20.62L40.5991 20.32C40.5991 20.12 40.6391 19.96 40.7191 19.84C40.7991 19.76 40.8591 19.72 40.8991 19.72C40.9391 19.72 40.9591 19.72 40.9591 19.72V19.6C40.9591 19.44 41.0191 19.34 41.1391 19.3C41.2991 19.26 41.3791 19.2 41.3791 19.12C41.4591 18.56 41.9391 18.14 42.8191 17.86C43.6991 17.58 44.4791 17.44 45.1591 17.44C45.8391 17.44 46.1791 17.54 46.1791 17.74C46.1791 17.86 46.0591 18 45.8191 18.16C45.6991 18.24 45.4991 18.42 45.2191 18.7C44.9391 18.98 44.6791 19.32 44.4391 19.72L44.0191 20.44L43.5991 20.98C43.3191 21.62 42.9191 22.6 42.3991 23.92C41.8791 25.24 41.3391 26.9 40.7791 28.9C40.8991 28.74 41.1791 28.4 41.6191 27.88C42.0591 27.36 42.5791 26.76 43.1791 26.08C43.7791 25.4 44.3591 24.76 44.9191 24.16C45.4791 23.52 45.9391 23.02 46.2991 22.66L46.5991 22.48C46.6791 22.4 46.7591 22.3 46.8391 22.18C46.9591 22.02 47.0591 21.9 47.1391 21.82C47.1791 21.78 47.1991 21.86 47.1991 22.06C47.2391 22.22 47.2791 22.28 47.3191 22.24C47.4791 22.12 47.5591 21.94 47.5591 21.7C47.5991 21.46 47.6991 21.3 47.8591 21.22C48.2991 20.86 48.8991 20.36 49.6591 19.72C50.4591 19.04 51.2791 18.64 52.1191 18.52C52.1991 18.44 52.3191 18.42 52.4791 18.46C52.6791 18.46 52.8191 18.44 52.8991 18.4C52.9791 18.4 53.0391 18.38 53.0791 18.34C53.1191 18.3 53.2191 18.28 53.3791 18.28C53.4591 18.28 53.6191 18.34 53.8591 18.46C54.1391 18.58 54.2991 18.74 54.3391 18.94C54.5791 19.1 54.6991 19.34 54.6991 19.66C54.6991 20.22 54.3991 20.64 53.7991 20.92C53.5991 21.12 53.3791 21.32 53.1391 21.52C52.8991 21.68 52.6591 21.86 52.4191 22.06C52.3391 22.14 52.2791 22.18 52.2391 22.18C51.9591 22.42 51.7191 22.68 51.5191 22.96C51.3191 23.24 51.2191 23.6 51.2191 24.04C51.2191 24.08 51.2591 24.14 51.3391 24.22C51.4191 24.26 51.4391 24.3 51.3991 24.34C51.5191 24.46 51.6991 24.54 51.9391 24.58C52.1791 24.58 52.4191 24.58 52.6591 24.58C53.0591 24.58 53.6591 24.42 54.4591 24.1H54.5791C54.6191 24.1 54.6391 24.12 54.6391 24.16C54.6391 24.24 54.5591 24.38 54.3991 24.58C54.2391 24.74 54.0591 24.86 53.8591 24.94C53.4191 25.1 52.9591 25.2 52.4791 25.24C51.9991 25.24 51.6591 25.24 51.4591 25.24C50.7391 25.24 50.2791 25.1 50.0791 24.82C49.9191 24.54 49.7591 24.2 49.5991 23.8V23.5L49.8991 23.2C49.8591 23.08 49.7991 22.96 49.7191 22.84C49.6391 22.72 49.5991 22.58 49.5991 22.42C49.5991 22.02 49.7591 21.56 50.0791 21.04C49.6391 21.16 49.0791 21.5 48.3991 22.06C47.7591 22.58 47.0991 23.2 46.4191 23.92C45.7391 24.6 45.1191 25.28 44.5591 25.96C43.9991 26.6 43.5591 27.12 43.2391 27.52C43.1191 27.68 42.9791 27.78 42.8191 27.82C42.6991 27.82 42.5991 27.88 42.5191 28C42.4791 28.04 42.5191 28.06 42.6391 28.06C42.7991 28.06 42.8591 28.08 42.8191 28.12C42.2991 28.92 41.7391 29.8 41.1391 30.76C40.5791 31.72 40.0191 32.66 39.4591 33.58C39.3391 33.78 39.0591 33.88 38.6191 33.88ZM66.393 33.94C65.793 33.94 65.353 33.68 65.073 33.16C65.033 33.04 64.933 32.86 64.773 32.62C64.653 32.38 64.553 32.18 64.473 32.02V31.96C64.473 31.88 64.493 31.8 64.533 31.72C64.573 31.64 64.593 31.56 64.593 31.48C64.593 31.32 64.553 31.18 64.473 31.06C64.393 30.9 64.353 30.74 64.353 30.58C64.353 30.02 64.513 29.36 64.833 28.6C65.193 27.84 65.473 27.18 65.673 26.62C65.753 26.3 65.953 25.92 66.273 25.48C66.313 25.44 66.353 25.42 66.393 25.42C66.473 25.42 66.533 25.4 66.573 25.36C66.653 25.24 66.693 25.12 66.693 25C66.733 24.84 66.773 24.7 66.813 24.58C66.853 24.5 66.933 24.46 67.053 24.46C67.173 24.46 67.253 24.42 67.293 24.34C67.333 24.26 67.273 24.22 67.113 24.22C66.953 24.22 66.893 24.18 66.933 24.1C67.213 23.58 67.513 23.04 67.833 22.48C68.193 21.92 68.433 21.56 68.553 21.4C68.513 21.44 68.493 21.4 68.493 21.28C68.493 21.12 68.453 21.06 68.373 21.1C68.333 21.14 68.233 21.24 68.073 21.4C67.913 21.56 67.793 21.68 67.713 21.76C67.513 21.92 67.273 22.14 66.993 22.42C66.713 22.7 66.533 22.88 66.453 22.96C66.333 23 66.173 23.18 65.973 23.5C65.773 23.78 65.633 23.96 65.553 24.04C65.393 24.2 65.233 24.28 65.073 24.28C64.993 24.28 64.933 24.24 64.893 24.16C64.893 24.04 64.933 23.92 65.013 23.8C65.093 23.72 65.173 23.62 65.253 23.5C65.333 23.34 65.393 23.22 65.433 23.14C65.473 23.1 65.533 23.04 65.613 22.96C65.693 22.84 65.733 22.76 65.733 22.72L66.213 22.18C66.253 22.14 66.333 22.14 66.453 22.18C66.573 22.18 66.653 22.16 66.693 22.12C66.733 22.04 66.673 22 66.513 22C66.393 21.96 66.353 21.92 66.393 21.88C66.753 21.24 67.213 20.62 67.773 20.02C68.333 19.42 68.713 19 68.913 18.76C69.113 18.52 69.373 18.34 69.693 18.22C70.053 18.06 70.393 17.98 70.713 17.98C70.993 17.98 71.193 18 71.313 18.04C71.553 18.12 71.833 18.24 72.153 18.4C72.513 18.52 72.733 18.7 72.813 18.94C72.933 19.18 72.853 19.56 72.573 20.08C72.293 20.6 71.953 21.12 71.553 21.64C71.193 22.12 70.893 22.44 70.653 22.6C70.613 22.64 70.513 22.66 70.353 22.66C70.193 22.66 69.993 22.66 69.753 22.66C69.513 22.62 69.373 22.64 69.333 22.72C69.213 22.88 69.073 23.04 68.913 23.2C68.753 23.32 68.633 23.48 68.553 23.68C68.513 23.92 68.453 24.12 68.373 24.28C68.333 24.44 68.213 24.68 68.013 25C67.973 25.08 67.893 25.22 67.773 25.42C67.653 25.58 67.573 25.7 67.533 25.78C67.253 26.66 66.993 27.5 66.753 28.3C66.553 29.06 66.453 29.7 66.453 30.22C66.453 30.74 66.613 31.2 66.933 31.6C67.253 31.96 67.673 32.14 68.193 32.14C68.793 32.14 69.433 31.94 70.113 31.54C70.513 31.38 70.953 31.08 71.433 30.64C71.513 30.56 71.573 30.5 71.613 30.46C71.693 30.38 71.773 30.32 71.853 30.28H72.033C72.233 30.28 72.333 30.36 72.333 30.52C72.333 30.68 72.193 30.88 71.913 31.12C71.753 31.24 71.593 31.34 71.433 31.42C71.313 31.5 71.173 31.6 71.013 31.72C70.813 31.84 70.593 32.04 70.353 32.32C70.113 32.56 69.833 32.68 69.513 32.68H69.453C69.333 32.68 69.233 32.66 69.153 32.62C69.073 32.54 68.993 32.52 68.913 32.56C68.793 32.6 68.793 32.68 68.913 32.8C69.073 32.88 69.093 32.96 68.973 33.04L68.493 33.28C67.613 33.72 66.913 33.94 66.393 33.94ZM56.673 33.58C56.433 33.58 56.133 33.32 55.773 32.8C55.533 32.48 55.413 31.98 55.413 31.3C55.413 30.62 55.533 29.88 55.773 29.08C56.053 28.28 56.393 27.58 56.793 26.98C57.233 26.1 57.533 25.44 57.693 25C57.853 24.56 58.013 24.2 58.173 23.92C58.173 23.88 58.133 23.84 58.053 23.8C57.973 23.76 57.933 23.68 57.933 23.56C57.693 23.4 57.433 23.18 57.153 22.9C56.913 22.58 56.893 22.28 57.093 22C57.173 21.92 57.233 21.88 57.273 21.88C57.313 21.84 57.333 21.82 57.333 21.82V21.7C57.333 21.54 57.393 21.44 57.513 21.4C57.673 21.36 57.753 21.3 57.753 21.22C57.833 20.66 58.293 20.24 59.133 19.96C60.013 19.68 60.793 19.54 61.473 19.54C62.233 19.54 62.613 19.66 62.613 19.9C62.613 20.02 62.473 20.16 62.193 20.32C62.073 20.36 61.873 20.52 61.593 20.8C61.313 21.08 61.053 21.42 60.813 21.82L60.393 22.54L59.973 23.08C59.733 23.52 59.473 23.98 59.193 24.46C58.953 24.9 58.553 25.74 57.993 26.98C57.833 27.38 57.693 27.76 57.573 28.12C57.493 28.48 57.493 28.76 57.573 28.96C57.613 29 57.473 29.14 57.153 29.38C56.873 29.62 56.753 29.76 56.793 29.8C56.833 29.8 56.893 29.82 56.973 29.86C57.053 29.86 57.153 29.86 57.273 29.86C57.513 29.86 57.753 29.82 57.993 29.74C58.113 29.7 58.213 29.62 58.293 29.5C58.373 29.34 58.433 29.26 58.473 29.26C58.713 29.26 58.973 29.2 59.253 29.08C59.693 28.88 60.233 28.48 60.873 27.88C60.953 27.8 61.113 27.74 61.353 27.7C61.593 27.62 61.793 27.48 61.953 27.28C62.433 26.84 62.713 26.58 62.793 26.5C62.873 26.38 63.113 26.12 63.513 25.72C63.513 25.68 63.593 25.5 63.753 25.18C63.913 24.82 63.993 24.62 63.993 24.58C64.073 24.38 64.153 24.28 64.233 24.28C64.393 24.28 64.513 24.42 64.593 24.7C64.713 24.98 64.713 25.22 64.593 25.42C64.553 25.46 64.453 25.54 64.293 25.66C64.173 25.78 64.073 25.88 63.993 25.96L63.213 26.74L61.593 28.18C61.553 28.22 61.513 28.28 61.473 28.36C61.433 28.44 61.373 28.52 61.293 28.6L60.753 29.44C60.713 29.52 60.633 29.52 60.513 29.44C60.393 29.32 60.233 29.34 60.033 29.5C59.993 29.54 59.953 29.62 59.913 29.74C59.913 29.86 59.893 29.96 59.853 30.04C59.813 30.16 59.813 30.24 59.853 30.28C59.893 30.28 59.913 30.3 59.913 30.34C59.873 30.46 59.793 30.54 59.673 30.58C59.593 30.62 59.513 30.68 59.433 30.76C59.393 30.8 59.393 30.86 59.433 30.94C59.473 31.02 59.453 31.1 59.373 31.18C59.333 31.3 59.293 31.34 59.253 31.3C59.213 31.26 59.153 31.28 59.073 31.36C59.033 31.4 58.973 31.46 58.893 31.54C58.853 31.58 58.793 31.62 58.713 31.66C58.393 31.78 58.213 31.94 58.173 32.14C58.133 32.34 57.993 32.56 57.753 32.8C57.233 33.32 56.873 33.58 56.673 33.58ZM76.7931 35.02C75.8331 35.14 75.1531 35 74.7531 34.6C74.3531 34.2 73.9931 33.8 73.6731 33.4C73.6331 33.28 73.5131 33.28 73.3131 33.4C73.1531 33.48 73.0331 33.46 72.9531 33.34C72.8731 33.18 72.7731 32.92 72.6531 32.56C72.5331 32.16 72.5131 31.8 72.5931 31.48C72.6731 31.32 72.8331 31.12 73.0731 30.88C73.3131 30.64 73.4731 30.46 73.5531 30.34C73.5931 30.34 73.7531 30.22 74.0331 29.98C74.3531 29.7 74.6331 29.4 74.8731 29.08C75.0331 28.36 75.1931 27.66 75.3531 26.98C75.5531 26.26 75.8531 25.46 76.2531 24.58V24.28C76.2531 24.16 76.2531 24.04 76.2531 23.92C76.2931 23.8 76.3331 23.68 76.3731 23.56C76.5331 23.24 76.6731 23.04 76.7931 22.96C76.9531 22.84 77.0931 22.6 77.2131 22.24C77.3331 21.92 77.4331 21.56 77.5131 21.16C77.6331 20.76 77.7731 20.5 77.9331 20.38C77.9731 20.38 77.9931 20.38 77.9931 20.38C77.9931 20.34 78.0131 20.32 78.0531 20.32C78.1331 20.32 78.2131 20.38 78.2931 20.5C78.3731 20.58 78.4331 20.42 78.4731 20.02L78.4131 19.96C78.4131 19.88 78.4331 19.78 78.4731 19.66C78.5531 19.54 78.5731 19.46 78.5331 19.42V19.24C78.5331 19 78.6131 18.78 78.7731 18.58C78.9731 18.34 79.1531 18.08 79.3131 17.8C79.3931 17.68 79.5531 17.62 79.7931 17.62C80.0331 17.58 80.1331 17.52 80.0931 17.44L79.9131 16.6C79.9931 16.28 80.1531 16.1 80.3931 16.06H80.5731C80.6931 15.54 80.7931 15.16 80.8731 14.92C80.9931 14.68 81.1331 14.48 81.2931 14.32L81.7731 13.84C82.0531 13.56 82.2531 13.3 82.3731 13.06C82.5331 12.82 82.6931 12.54 82.8531 12.22C82.9331 12.06 83.0331 11.92 83.1531 11.8C83.3131 11.68 83.4531 11.54 83.5731 11.38C83.6531 11.3 83.6731 11.18 83.6331 11.02C83.6331 10.86 83.6531 10.74 83.6931 10.66C84.0131 10.18 84.3931 9.7 84.8331 9.22C85.2731 8.7 85.6931 8.24 86.0931 7.84C86.2131 7.64 86.3331 7.44 86.4531 7.24C86.6131 7.04 86.7731 6.84 86.9331 6.64C87.1731 6.36 87.4331 6.16 87.7131 6.04C87.9931 5.92 88.2731 5.74 88.5531 5.5C88.6331 5.42 88.6731 5.3 88.6731 5.14C88.6731 4.94 88.7131 4.8 88.7931 4.72C90.1931 3.6 91.6931 2.66 93.2931 1.9C94.9331 1.14 96.1931 0.759999 97.0731 0.759999C97.3931 0.759999 97.6931 0.779999 97.9731 0.819998C98.2931 0.859998 98.5931 0.919998 98.8731 0.999999H98.9931C99.1931 0.999999 99.3931 1.04 99.5931 1.12C99.7931 1.2 99.9731 1.28 100.133 1.36C100.293 1.36 100.493 1.4 100.733 1.48C100.933 1.56 101.053 1.68 101.093 1.84C101.133 2 101.093 2.12 100.973 2.2C100.933 2.24 100.873 2.24 100.793 2.2C100.713 2.16 100.633 2.14 100.553 2.14C100.473 2.14 100.393 2.1 100.313 2.02C100.233 1.94 100.153 1.88 100.073 1.84C99.9131 1.84 99.7531 1.86 99.5931 1.9C99.4731 1.94 99.3331 1.96 99.1731 1.96C98.7331 1.96 98.4531 1.92 98.3331 1.84C98.2131 1.72 97.9731 1.7 97.6131 1.78C97.5731 1.78 97.4531 1.8 97.2531 1.84C97.0531 1.88 96.9131 1.9 96.8331 1.9C95.3931 2.26 94.1331 2.86 93.0531 3.7C91.9731 4.5 91.0131 5.4 90.1731 6.4C89.3731 7.4 88.5931 8.36 87.8331 9.28C87.4731 10 87.1131 10.58 86.7531 11.02C86.7131 11.06 86.6731 11.04 86.6331 10.96C86.5931 10.88 86.5531 10.88 86.5131 10.96C86.3931 11.08 86.2931 11.28 86.2131 11.56C86.1731 11.8 86.0931 12 85.9731 12.16C85.9331 12.2 85.8931 12.2 85.8531 12.16C85.8531 12.12 85.8131 12.1 85.7331 12.1C85.6131 12.1 85.5931 12.18 85.6731 12.34C85.7931 12.46 85.8131 12.56 85.7331 12.64C85.2531 13.32 84.6531 14.02 83.9331 14.74C83.2531 15.46 82.6331 16.22 82.0731 17.02C81.4331 18.02 80.8131 19 80.2131 19.96C79.6131 20.88 79.0331 21.8 78.4731 22.72C78.4331 22.76 78.3731 22.82 78.2931 22.9C78.2131 22.94 78.1531 23 78.1131 23.08C78.0731 23.12 78.0731 23.18 78.1131 23.26C78.1531 23.3 78.1531 23.36 78.1131 23.44C77.7131 24.08 77.4331 24.6 77.2731 25C77.1131 25.36 76.9331 25.74 76.7331 26.14C76.6531 26.34 76.5731 26.6 76.4931 26.92C76.4531 27.24 76.3931 27.48 76.3131 27.64C76.4331 27.48 76.8131 27.08 77.4531 26.44C78.1331 25.76 78.9331 24.96 79.8531 24.04C80.8131 23.12 81.7531 22.22 82.6731 21.34C82.7931 21.22 82.9131 21.06 83.0331 20.86C83.1531 20.66 83.2731 20.52 83.3931 20.44C83.6731 20.16 83.9731 19.94 84.2931 19.78C84.6131 19.58 84.9131 19.36 85.1931 19.12C85.3931 18.96 85.5731 18.86 85.7331 18.82C85.9331 18.78 86.1131 18.7 86.2731 18.58C86.3531 18.54 86.3731 18.5 86.3331 18.46C86.2931 18.38 86.3131 18.32 86.3931 18.28C86.8331 18.04 87.0731 17.9 87.1131 17.86C87.1531 17.82 87.3131 17.76 87.5931 17.68C88.0331 17.52 88.5331 17.44 89.0931 17.44C89.4531 17.44 89.6731 17.46 89.7531 17.5C89.9531 17.62 90.1731 17.72 90.4131 17.8C90.6531 17.88 90.7731 18.12 90.7731 18.52C90.7731 18.72 90.7931 18.84 90.8331 18.88C90.8731 18.88 90.8931 19.02 90.8931 19.3C90.8931 19.5 90.8531 19.82 90.7731 20.26C90.7331 20.7 90.6931 21.04 90.6531 21.28L90.4131 22.78C90.3731 22.9 90.3731 23.02 90.4131 23.14C90.4531 23.26 90.4531 23.38 90.4131 23.5C90.3731 23.54 90.3131 23.6 90.2331 23.68C90.1531 23.76 90.0931 23.84 90.0531 23.92C89.7731 23.96 89.5731 24.1 89.4531 24.34C89.3731 24.54 89.4731 24.62 89.7531 24.58C89.7131 24.62 89.6331 24.68 89.5131 24.76C89.4331 24.84 89.3731 24.92 89.3331 25C89.2931 25.04 89.3131 25.08 89.3931 25.12C89.4731 25.12 89.4331 25.26 89.2731 25.54C89.1531 25.74 89.0331 26 88.9131 26.32C88.7931 26.64 88.6731 26.9 88.5531 27.1C88.4331 27.26 88.3131 27.36 88.1931 27.4C88.1131 27.44 88.0131 27.54 87.8931 27.7C87.8531 27.78 87.8331 27.86 87.8331 27.94C87.8331 28.02 87.7931 28.1 87.7131 28.18C87.6731 28.26 87.5931 28.32 87.4731 28.36C87.3931 28.4 87.3131 28.46 87.2331 28.54C85.9531 30.06 84.3931 31.44 82.5531 32.68C80.7531 33.92 78.8331 34.7 76.7931 35.02ZM76.9731 33.88C77.3331 33.88 77.8531 33.8 78.5331 33.64C79.2131 33.44 79.8331 33.18 80.3931 32.86C80.5931 32.78 80.7731 32.68 80.9331 32.56C81.1331 32.4 81.3131 32.24 81.4731 32.08C81.6331 31.92 81.7331 31.76 81.7731 31.6C81.9331 31.36 82.1731 31.1 82.4931 30.82L82.7931 30.64C82.9531 30.48 83.1131 30.2 83.2731 29.8H83.3931C83.5531 29.76 83.6531 29.68 83.6931 29.56L83.9931 29.44C83.9931 29.32 84.0331 29.22 84.1131 29.14C84.1931 28.98 84.3331 28.8 84.5331 28.6C84.7331 28.36 84.8331 28.16 84.8331 28C84.8331 27.96 84.7931 27.9 84.7131 27.82C84.7531 27.74 84.8331 27.6 84.9531 27.4C85.1131 27.16 85.2131 27 85.2531 26.92L85.6131 26.86L85.7931 26.5V26.38C86.3131 26.38 86.5331 26.18 86.4531 25.78L86.8731 24.64C86.9531 24.32 87.0731 24.1 87.2331 23.98C87.2331 23.82 87.2531 23.72 87.2931 23.68C87.3331 23.64 87.3731 23.56 87.4131 23.44C87.5331 23.12 87.6531 22.7 87.7731 22.18C87.9331 21.66 88.0131 21.4 88.0131 21.4L87.8331 21.04C87.8331 20.96 87.7731 20.84 87.6531 20.68C87.5731 20.52 87.5531 20.38 87.5931 20.26C87.6731 19.98 87.8131 19.8 88.0131 19.72C88.2531 19.64 88.2931 19.58 88.1331 19.54H88.0731C87.9531 19.54 87.8131 19.56 87.6531 19.6C87.5331 19.64 87.3731 19.7 87.1731 19.78C86.9331 19.86 86.7131 19.88 86.5131 19.84C86.3131 19.8 86.1531 19.82 86.0331 19.9C85.6331 20.02 85.2131 20.22 84.7731 20.5C84.3331 20.74 83.8531 21.08 83.3331 21.52C83.2931 21.56 83.2331 21.64 83.1531 21.76C83.0731 21.88 82.9931 21.98 82.9131 22.06C82.8731 22.1 82.7931 22.12 82.6731 22.12C82.5931 22.12 82.5131 22.16 82.4331 22.24C82.3931 22.28 82.3931 22.34 82.4331 22.42C82.4731 22.5 82.4731 22.58 82.4331 22.66C82.3531 22.7 82.2731 22.74 82.1931 22.78C82.1131 22.82 82.0331 22.88 81.9531 22.96L81.7731 23.26C81.0931 24.02 80.2531 24.86 79.2531 25.78C78.2931 26.7 77.4731 27.6 76.7931 28.48L85.4331 25.18C85.6731 25.06 85.8931 25 86.0931 25C86.1731 24.96 86.2731 25 86.3931 25.12C86.4331 25.2 86.3931 25.28 86.2731 25.36C86.1931 25.44 86.1331 25.46 86.0931 25.42L85.7931 25.36C85.7531 25.4 85.6731 25.46 85.5531 25.54C85.4731 25.62 85.3931 25.66 85.3131 25.66C85.1531 25.74 85.0531 25.78 85.0131 25.78C84.9731 25.82 84.8931 25.84 84.7731 25.84C84.6531 25.84 84.5731 25.86 84.5331 25.9C84.4531 25.94 84.3931 25.98 84.3531 26.02C84.3131 26.02 84.2531 26.06 84.1731 26.14C83.2531 26.54 82.2531 27 81.1731 27.52C80.0931 28 79.0931 28.48 78.1731 28.96C77.0131 29.6 76.2131 30.22 75.7731 30.82C75.3331 31.38 75.1131 31.88 75.1131 32.32C75.1131 32.68 75.2131 33 75.4131 33.28C75.6131 33.52 75.8531 33.68 76.1331 33.76C76.4131 33.84 76.6931 33.88 76.9731 33.88ZM98.7302 38.08C98.2902 38.08 97.9502 37.96 97.7102 37.72C97.3102 37.28 97.1102 36.86 97.1102 36.46C97.1102 36.26 97.1702 36.04 97.2902 35.8C97.3702 35.6 97.5102 35.32 97.7102 34.96C97.9502 34.6 98.1502 34.28 98.3102 34C98.4302 33.8 98.5702 33.66 98.7302 33.58C98.8902 33.5 99.0102 33.4 99.0902 33.28C99.1302 33.24 99.2902 33 99.5702 32.56C99.8502 32.08 100.15 31.54 100.47 30.94C100.83 30.3 101.15 29.72 101.43 29.2C101.71 28.68 101.89 28.36 101.97 28.24C102.21 28.16 102.35 28.02 102.39 27.82C102.47 27.62 102.53 27.44 102.57 27.28C102.65 27.04 102.85 26.76 103.17 26.44C103.49 26.12 103.71 25.74 103.83 25.3C103.71 25.1 103.71 25.02 103.83 25.06C103.99 25.1 104.05 25.06 104.01 24.94L104.13 24.7C104.41 24.5 104.61 24.24 104.73 23.92C104.89 23.6 104.99 23.3 105.03 23.02C105.23 22.78 105.45 22.54 105.69 22.3C105.93 22.06 106.11 21.8 106.23 21.52C106.27 21.44 106.27 21.38 106.23 21.34C106.23 21.26 106.25 21.2 106.29 21.16V21.1C106.97 19.94 107.65 18.7 108.33 17.38C109.05 16.06 109.65 14.72 110.13 13.36C110.61 11.96 110.85 10.64 110.85 9.4C110.85 8.28 110.57 7.34 110.01 6.58C109.89 6.58 109.77 6.58 109.65 6.58C109.53 6.54 109.43 6.52 109.35 6.52C109.19 6.48 108.89 6.44 108.45 6.4C108.05 6.36 107.65 6.3 107.25 6.22C106.89 6.14 106.69 6.1 106.65 6.1C106.49 6.06 106.31 6.04 106.11 6.04C105.91 6 105.69 5.98 105.45 5.98C105.17 5.98 104.87 6 104.55 6.04C104.27 6.08 104.01 6.14 103.77 6.22L102.15 6.4C102.03 6.36 101.81 6.34 101.49 6.34C100.65 6.34 99.6902 6.48 98.6102 6.76C97.5302 7 96.8102 7.26 96.4502 7.54L96.0302 7.84C95.9102 7.92 95.7502 7.98 95.5502 8.02C95.3502 8.06 95.1702 8.12 95.0102 8.2C94.6102 8.36 94.2502 8.32 93.9302 8.08C93.6502 7.84 93.5102 7.56 93.5102 7.24C93.5102 6.92 93.6702 6.64 93.9902 6.4C94.8702 5.72 95.8102 5.18 96.8102 4.78C97.8102 4.34 98.8502 3.98 99.9302 3.7C100.01 3.66 100.11 3.62 100.23 3.58C100.39 3.54 100.53 3.52 100.65 3.52C101.09 3.52 101.37 3.52 101.49 3.52C101.61 3.48 101.85 3.42 102.21 3.34L102.27 3.28C102.43 3.28 102.55 3.3 102.63 3.34H102.81C103.01 3.26 103.19 3.18 103.35 3.1C103.55 3.02 103.75 3.08 103.95 3.28L104.79 3.22C105.07 3.22 105.29 3.28 105.45 3.4C107.77 3.76 109.47 4.66 110.55 6.1C110.71 6.1 110.83 6.08 110.91 6.04C111.19 6.08 111.49 6.16 111.81 6.28C112.13 6.4 112.43 6.52 112.71 6.64C112.99 6.68 113.23 6.72 113.43 6.76C113.63 6.8 113.83 6.86 114.03 6.94L114.87 7.36C114.95 7.6 115.05 7.74 115.17 7.78C115.29 7.82 115.45 7.92 115.65 8.08C115.81 8.16 115.91 8.28 115.95 8.44C116.03 8.56 116.11 8.7 116.19 8.86C116.23 8.9 116.25 9 116.25 9.16C116.25 9.28 116.25 9.36 116.25 9.4C116.17 9.72 116.07 9.88 115.95 9.88C115.75 9.88 115.57 9.72 115.41 9.4C115.01 8.76 114.69 8.3 114.45 8.02C114.21 7.74 113.61 7.48 112.65 7.24C112.61 7.24 112.43 7.2 112.11 7.12C111.79 7.04 111.61 6.98 111.57 6.94C111.45 6.94 111.27 6.9 111.03 6.82C111.51 7.82 111.75 8.92 111.75 10.12C111.75 10.32 111.73 10.54 111.69 10.78C111.69 11.02 111.67 11.26 111.63 11.5C111.39 11.66 111.27 11.84 111.27 12.04C111.27 12.12 111.27 12.22 111.27 12.34C111.31 12.42 111.35 12.52 111.39 12.64C111.39 12.76 111.37 12.88 111.33 13C111.33 13.08 111.31 13.18 111.27 13.3C111.11 13.42 111.01 13.58 110.97 13.78C110.93 13.98 110.93 14.18 110.97 14.38L110.73 15.1C110.53 15.3 110.41 15.5 110.37 15.7C110.01 15.82 109.83 15.98 109.83 16.18C109.83 16.38 109.89 16.6 110.01 16.84C109.85 17.52 109.51 18.32 108.99 19.24C108.51 20.16 108.11 20.96 107.79 21.64C107.63 21.68 107.51 21.7 107.43 21.7C107.35 21.7 107.21 21.74 107.01 21.82C107.13 21.94 107.25 22.04 107.37 22.12C107.49 22.2 107.47 22.38 107.31 22.66H107.19C106.91 22.66 106.77 22.76 106.77 22.96C106.81 23.12 106.83 23.3 106.83 23.5C106.67 23.9 106.43 24.44 106.11 25.12C105.79 25.76 105.45 26.38 105.09 26.98C104.73 27.58 104.41 28.04 104.13 28.36C103.97 28.52 103.87 28.68 103.83 28.84C103.83 29 103.81 29.18 103.77 29.38C103.77 29.46 103.63 29.74 103.35 30.22C103.11 30.7 102.85 31.2 102.57 31.72C102.29 32.24 102.09 32.58 101.97 32.74C102.01 32.9 102.03 33.1 102.03 33.34C102.03 33.94 101.83 34.46 101.43 34.9C101.07 35.38 100.75 35.84 100.47 36.28C100.35 36.44 100.19 36.66 99.9902 36.94C99.8302 37.22 99.6502 37.46 99.4502 37.66L98.9702 37.9C98.9302 37.9 98.8902 37.92 98.8502 37.96C98.8502 38 98.8102 38.04 98.7302 38.08ZM95.8502 6.22H96.6302C96.7902 6.22 96.9302 6.22 97.0502 6.22C97.1702 6.22 97.3102 6.2 97.4702 6.16C97.9102 6.08 98.3502 6 98.7902 5.92C99.2702 5.8 99.6902 5.72 100.05 5.68C100.17 5.64 100.29 5.62 100.41 5.62C100.53 5.62 100.63 5.62 100.71 5.62C100.87 5.62 101.01 5.62 101.13 5.62C101.29 5.62 101.45 5.64 101.61 5.68C101.69 5.68 101.81 5.64 101.97 5.56C102.17 5.44 102.37 5.38 102.57 5.38C102.93 5.38 103.29 5.36 103.65 5.32C104.01 5.28 104.27 5.26 104.43 5.26H106.59C106.99 5.26 107.37 5.34 107.73 5.5C108.09 5.62 108.41 5.66 108.69 5.62C108.77 5.62 108.85 5.64 108.93 5.68C108.37 5.32 107.67 5.02 106.83 4.78C105.79 4.46 104.71 4.3 103.59 4.3C101.11 4.3 98.5302 4.94 95.8502 6.22ZM120.51 34.42C120.19 34.42 119.97 34.34 119.85 34.18C119.77 34.06 119.73 33.88 119.73 33.64C119.73 33.52 119.73 33.38 119.73 33.22C119.77 33.02 119.79 32.84 119.79 32.68C119.79 32.4 119.75 32.1 119.67 31.78C119.59 31.46 119.39 31.16 119.07 30.88C118.91 30.52 118.65 30.32 118.29 30.28C118.13 30.04 117.97 29.92 117.81 29.92H117.75C117.67 29.92 117.59 29.84 117.51 29.68C117.43 29.48 117.31 29.38 117.15 29.38C117.07 29.46 117.07 29.54 117.15 29.62C117.07 29.58 116.99 29.54 116.91 29.5C116.83 29.46 116.73 29.46 116.61 29.5C116.45 29.42 116.37 29.38 116.37 29.38H116.31C116.15 29.18 115.93 29.06 115.65 29.02C115.41 28.94 115.19 28.94 114.99 29.02L114.27 28.84C113.99 28.68 113.73 28.58 113.49 28.54C113.37 28.54 113.29 28.6 113.25 28.72C113.21 28.8 113.09 28.8 112.89 28.72C112.61 28.6 112.37 28.58 112.17 28.66C111.77 28.66 111.37 28.66 110.97 28.66C110.61 28.62 110.23 28.62 109.83 28.66L109.29 28.72L108.81 28.78C108.65 28.82 108.49 28.84 108.33 28.84C108.17 28.84 108.01 28.84 107.85 28.84C107.45 28.84 107.21 28.82 107.13 28.78C106.85 28.66 106.55 28.44 106.23 28.12C105.91 27.76 105.75 27.44 105.75 27.16C105.75 26.96 105.77 26.72 105.81 26.44C105.85 26.16 105.99 25.94 106.23 25.78C107.07 25.1 107.99 24.76 108.99 24.76C109.91 24.76 110.59 24.82 111.03 24.94C111.47 25.06 111.87 25.24 112.23 25.48C112.63 25.68 113.17 25.9 113.85 26.14C114.53 26.34 115.21 26.44 115.89 26.44C116.37 26.44 116.85 26.42 117.33 26.38C117.85 26.3 118.33 26.24 118.77 26.2C119.01 26.16 119.27 26.14 119.55 26.14C119.83 26.1 120.09 26.06 120.33 26.02H120.51C120.63 26.02 120.73 26.04 120.81 26.08C120.93 26.12 121.07 26.12 121.23 26.08C121.31 26.08 121.45 26.04 121.65 25.96C121.85 25.84 121.99 25.78 122.07 25.78C122.15 25.78 122.21 25.78 122.25 25.78C122.33 25.74 122.41 25.72 122.49 25.72L122.73 25.06C122.81 24.82 122.89 24.58 122.97 24.34C123.05 24.06 123.09 23.78 123.09 23.5V23.44C123.13 23.4 123.17 23.24 123.21 22.96C123.29 22.64 123.33 22.48 123.33 22.48L123.93 20.86L124.11 20.44L124.17 19.96C124.25 19.8 124.29 19.68 124.29 19.6C124.49 18.92 124.75 18.26 125.07 17.62C125.43 16.98 125.69 16.32 125.85 15.64L125.97 15.16L126.15 14.8V14.74C126.23 14.66 126.25 14.6 126.21 14.56C126.21 14.48 126.21 14.42 126.21 14.38C126.17 14.38 126.13 14.36 126.09 14.32C126.09 14.28 126.09 14.26 126.09 14.26C126.41 14.02 126.67 13.76 126.87 13.48C127.07 13.16 127.11 12.8 126.99 12.4V12.34L127.29 11.44L127.41 10.96C127.49 10.84 127.61 10.76 127.77 10.72C127.97 10.64 128.03 10.52 127.95 10.36C127.63 10.24 127.57 10.02 127.77 9.7C127.81 9.66 127.87 9.64 127.95 9.64C128.11 9.64 128.31 9.62 128.55 9.58C128.79 9.54 128.99 9.44 129.15 9.28V9.1C129.03 8.9 128.83 8.8 128.55 8.8C128.31 8.76 128.19 8.62 128.19 8.38L128.31 8.2L128.43 7.66C128.55 7.06 128.97 6.6 129.69 6.28C130.41 5.92 131.07 5.74 131.67 5.74C131.99 5.74 132.25 5.8 132.45 5.92C132.65 6.04 132.69 6.24 132.57 6.52L131.55 8.92C131.43 9.04 131.33 9.2 131.25 9.4C131.17 9.56 131.07 9.72 130.95 9.88C130.91 9.96 130.83 10.02 130.71 10.06C130.63 10.06 130.57 10.1 130.53 10.18C130.49 10.3 130.51 10.36 130.59 10.36C130.67 10.32 130.69 10.36 130.65 10.48C130.57 10.76 130.41 11.1 130.17 11.5C129.97 11.86 129.79 12.16 129.63 12.4C129.59 12.4 129.55 12.42 129.51 12.46C129.35 12.46 129.27 12.36 129.27 12.16C129.27 11.96 129.21 11.84 129.09 11.8C129.09 11.84 129.07 11.88 129.03 11.92C129.03 11.96 129.03 12.02 129.03 12.1C129.03 12.26 129.05 12.42 129.09 12.58C129.17 12.74 129.19 12.92 129.15 13.12C129.07 13.16 129.03 13.28 129.03 13.48C129.03 13.6 128.97 13.68 128.85 13.72C128.73 13.72 128.65 13.8 128.61 13.96L127.47 15.82L127.23 16.3C127.15 16.46 127.05 16.62 126.93 16.78C126.81 16.94 126.69 17.12 126.57 17.32C126.45 17.52 126.39 17.64 126.39 17.68C126.39 17.68 126.33 17.78 126.21 17.98C126.17 18.06 126.13 18.18 126.09 18.34C126.05 18.5 125.99 18.64 125.91 18.76C125.91 18.76 125.83 18.74 125.67 18.7C125.51 18.66 125.43 18.66 125.43 18.7C125.35 18.82 125.31 18.96 125.31 19.12C125.31 19.2 125.31 19.3 125.31 19.42C125.35 19.5 125.39 19.64 125.43 19.84C125.43 20 125.41 20.1 125.37 20.14C125.29 20.3 125.25 20.42 125.25 20.5C125.25 20.58 125.15 20.74 124.95 20.98C124.75 21.18 124.65 21.32 124.65 21.4C124.53 21.8 124.47 22.08 124.47 22.24C124.47 22.36 124.39 22.62 124.23 23.02L123.93 23.8C123.93 23.8 123.93 23.88 123.93 24.04C123.93 24.2 123.91 24.28 123.87 24.28C123.79 24.4 123.69 24.58 123.57 24.82C123.49 25.02 123.41 25.24 123.33 25.48C123.57 25.4 123.79 25.34 123.99 25.3C124.19 25.22 124.33 25.18 124.41 25.18C124.65 25.14 124.85 25.14 125.01 25.18C125.21 25.18 125.39 25.18 125.55 25.18C125.67 25.18 125.77 25.14 125.85 25.06C125.97 24.98 126.05 24.94 126.09 24.94C126.21 24.9 126.31 24.92 126.39 25C126.47 25.04 126.51 25.06 126.51 25.06C126.51 25.06 126.51 25.12 126.51 25.24C126.51 25.32 126.47 25.4 126.39 25.48C126.35 25.52 126.27 25.52 126.15 25.48C126.03 25.44 125.93 25.44 125.85 25.48C125.57 25.52 125.21 25.58 124.77 25.66C124.33 25.74 123.89 25.82 123.45 25.9C123.33 25.9 123.23 25.92 123.15 25.96C123.03 26.32 122.97 26.64 122.97 26.92L122.79 27.46C122.75 27.58 122.71 27.72 122.67 27.88C122.63 28 122.59 28.1 122.55 28.18L122.49 28.48L122.43 28.54C122.39 28.7 122.39 28.82 122.43 28.9C122.47 28.98 122.47 29.12 122.43 29.32V30.04C122.75 30.52 122.91 30.92 122.91 31.24C122.91 31.56 122.83 31.84 122.67 32.08C122.51 32.32 122.41 32.64 122.37 33.04C122.33 33.32 122.15 33.62 121.83 33.94C121.55 34.26 121.11 34.42 120.51 34.42ZM120.81 30.94C120.89 30.94 120.97 30.84 121.05 30.64C121.17 30.44 121.31 30.08 121.47 29.56L121.53 29.08C121.57 29 121.61 28.86 121.65 28.66C121.73 28.42 121.79 28.28 121.83 28.24V28.18C122.03 27.94 122.15 27.72 122.19 27.52C122.23 27.28 122.25 27.02 122.25 26.74V26.5L122.37 26.08C122.17 26.12 121.89 26.2 121.53 26.32C121.17 26.44 120.77 26.52 120.33 26.56C119.61 26.64 118.83 26.76 117.99 26.92C117.19 27.08 116.47 27.18 115.83 27.22C115.71 27.22 115.57 27.24 115.41 27.28C115.25 27.28 115.13 27.26 115.05 27.22C114.93 27.14 114.87 27.06 114.87 26.98C114.83 26.82 114.73 26.76 114.57 26.8C114.45 26.84 114.39 26.86 114.39 26.86C114.35 26.86 114.29 26.9 114.21 26.98C114.17 27.02 114.11 27.04 114.03 27.04C113.87 27.04 113.73 27.06 113.61 27.1C113.53 27.14 113.41 27.16 113.25 27.16C113.09 27.12 112.93 27.08 112.77 27.04C112.61 27 112.47 26.98 112.35 26.98C112.19 27.02 112.01 27.06 111.81 27.1C111.65 27.1 111.47 27.12 111.27 27.16C111.23 27.16 111.19 27.16 111.15 27.16C111.15 27.12 111.13 27.1 111.09 27.1C110.89 27.1 110.79 27.2 110.79 27.4C110.79 27.68 110.97 27.76 111.33 27.64L112.77 27.82H113.19L113.25 27.88C113.33 27.92 113.41 27.96 113.49 28C113.61 28.04 113.73 28.08 113.85 28.12C114.17 28.24 114.59 28.32 115.11 28.36C115.67 28.4 116.09 28.48 116.37 28.6L117.03 28.9C117.19 28.94 117.31 28.96 117.39 28.96C117.47 28.96 117.59 28.98 117.75 29.02L118.05 29.38C118.21 29.42 118.31 29.42 118.35 29.38C118.39 29.34 118.47 29.36 118.59 29.44L119.19 29.8C119.31 30 119.47 30.14 119.67 30.22C119.87 30.3 119.99 30.34 120.03 30.34C120.23 30.42 120.37 30.54 120.45 30.7C120.57 30.86 120.69 30.94 120.81 30.94ZM140.045 33.94C139.445 33.94 139.005 33.68 138.725 33.16C138.685 33.04 138.585 32.86 138.425 32.62C138.305 32.38 138.205 32.18 138.125 32.02V31.96C138.125 31.88 138.145 31.8 138.185 31.72C138.225 31.64 138.245 31.56 138.245 31.48C138.245 31.32 138.205 31.18 138.125 31.06C138.045 30.9 138.005 30.74 138.005 30.58C138.005 30.02 138.165 29.36 138.485 28.6C138.845 27.84 139.125 27.18 139.325 26.62C139.405 26.3 139.605 25.92 139.925 25.48C139.965 25.44 140.005 25.42 140.045 25.42C140.125 25.42 140.185 25.4 140.225 25.36C140.305 25.24 140.345 25.12 140.345 25C140.385 24.84 140.425 24.7 140.465 24.58C140.505 24.5 140.585 24.46 140.705 24.46C140.825 24.46 140.905 24.42 140.945 24.34C140.985 24.26 140.925 24.22 140.765 24.22C140.605 24.22 140.545 24.18 140.585 24.1C140.865 23.58 141.165 23.04 141.485 22.48C141.845 21.92 142.085 21.56 142.205 21.4C142.165 21.44 142.145 21.4 142.145 21.28C142.145 21.12 142.105 21.06 142.025 21.1C141.985 21.14 141.885 21.24 141.725 21.4C141.565 21.56 141.445 21.68 141.365 21.76C141.165 21.92 140.925 22.14 140.645 22.42C140.365 22.7 140.185 22.88 140.105 22.96C139.985 23 139.825 23.18 139.625 23.5C139.425 23.78 139.285 23.96 139.205 24.04C139.045 24.2 138.885 24.28 138.725 24.28C138.645 24.28 138.585 24.24 138.545 24.16C138.545 24.04 138.585 23.92 138.665 23.8C138.745 23.72 138.825 23.62 138.905 23.5C138.985 23.34 139.045 23.22 139.085 23.14C139.125 23.1 139.185 23.04 139.265 22.96C139.345 22.84 139.385 22.76 139.385 22.72L139.865 22.18C139.905 22.14 139.985 22.14 140.105 22.18C140.225 22.18 140.305 22.16 140.345 22.12C140.385 22.04 140.325 22 140.165 22C140.045 21.96 140.005 21.92 140.045 21.88C140.405 21.24 140.865 20.62 141.425 20.02C141.985 19.42 142.365 19 142.565 18.76C142.765 18.52 143.025 18.34 143.345 18.22C143.705 18.06 144.045 17.98 144.365 17.98C144.645 17.98 144.845 18 144.965 18.04C145.205 18.12 145.485 18.24 145.805 18.4C146.165 18.52 146.385 18.7 146.465 18.94C146.585 19.18 146.505 19.56 146.225 20.08C145.945 20.6 145.605 21.12 145.205 21.64C144.845 22.12 144.545 22.44 144.305 22.6C144.265 22.64 144.165 22.66 144.005 22.66C143.845 22.66 143.645 22.66 143.405 22.66C143.165 22.62 143.025 22.64 142.985 22.72C142.865 22.88 142.725 23.04 142.565 23.2C142.405 23.32 142.285 23.48 142.205 23.68C142.165 23.92 142.105 24.12 142.025 24.28C141.985 24.44 141.865 24.68 141.665 25C141.625 25.08 141.545 25.22 141.425 25.42C141.305 25.58 141.225 25.7 141.185 25.78C140.905 26.66 140.645 27.5 140.405 28.3C140.205 29.06 140.105 29.7 140.105 30.22C140.105 30.74 140.265 31.2 140.585 31.6C140.905 31.96 141.325 32.14 141.845 32.14C142.445 32.14 143.085 31.94 143.765 31.54C144.165 31.38 144.605 31.08 145.085 30.64C145.165 30.56 145.225 30.5 145.265 30.46C145.345 30.38 145.425 30.32 145.505 30.28H145.685C145.885 30.28 145.985 30.36 145.985 30.52C145.985 30.68 145.845 30.88 145.565 31.12C145.405 31.24 145.245 31.34 145.085 31.42C144.965 31.5 144.825 31.6 144.665 31.72C144.465 31.84 144.245 32.04 144.005 32.32C143.765 32.56 143.485 32.68 143.165 32.68H143.105C142.985 32.68 142.885 32.66 142.805 32.62C142.725 32.54 142.645 32.52 142.565 32.56C142.445 32.6 142.445 32.68 142.565 32.8C142.725 32.88 142.745 32.96 142.625 33.04L142.145 33.28C141.265 33.72 140.565 33.94 140.045 33.94ZM130.325 33.58C130.085 33.58 129.785 33.32 129.425 32.8C129.185 32.48 129.065 31.98 129.065 31.3C129.065 30.62 129.185 29.88 129.425 29.08C129.705 28.28 130.045 27.58 130.445 26.98C130.885 26.1 131.185 25.44 131.345 25C131.505 24.56 131.665 24.2 131.825 23.92C131.825 23.88 131.785 23.84 131.705 23.8C131.625 23.76 131.585 23.68 131.585 23.56C131.345 23.4 131.085 23.18 130.805 22.9C130.565 22.58 130.545 22.28 130.745 22C130.825 21.92 130.885 21.88 130.925 21.88C130.965 21.84 130.985 21.82 130.985 21.82V21.7C130.985 21.54 131.045 21.44 131.165 21.4C131.325 21.36 131.405 21.3 131.405 21.22C131.485 20.66 131.945 20.24 132.785 19.96C133.665 19.68 134.445 19.54 135.125 19.54C135.885 19.54 136.265 19.66 136.265 19.9C136.265 20.02 136.125 20.16 135.845 20.32C135.725 20.36 135.525 20.52 135.245 20.8C134.965 21.08 134.705 21.42 134.465 21.82L134.045 22.54L133.625 23.08C133.385 23.52 133.125 23.98 132.845 24.46C132.605 24.9 132.205 25.74 131.645 26.98C131.485 27.38 131.345 27.76 131.225 28.12C131.145 28.48 131.145 28.76 131.225 28.96C131.265 29 131.125 29.14 130.805 29.38C130.525 29.62 130.405 29.76 130.445 29.8C130.485 29.8 130.545 29.82 130.625 29.86C130.705 29.86 130.805 29.86 130.925 29.86C131.165 29.86 131.405 29.82 131.645 29.74C131.765 29.7 131.865 29.62 131.945 29.5C132.025 29.34 132.085 29.26 132.125 29.26C132.365 29.26 132.625 29.2 132.905 29.08C133.345 28.88 133.885 28.48 134.525 27.88C134.605 27.8 134.765 27.74 135.005 27.7C135.245 27.62 135.445 27.48 135.605 27.28C136.085 26.84 136.365 26.58 136.445 26.5C136.525 26.38 136.765 26.12 137.165 25.72C137.165 25.68 137.245 25.5 137.405 25.18C137.565 24.82 137.645 24.62 137.645 24.58C137.725 24.38 137.805 24.28 137.885 24.28C138.045 24.28 138.165 24.42 138.245 24.7C138.365 24.98 138.365 25.22 138.245 25.42C138.205 25.46 138.105 25.54 137.945 25.66C137.825 25.78 137.725 25.88 137.645 25.96L136.865 26.74L135.245 28.18C135.205 28.22 135.165 28.28 135.125 28.36C135.085 28.44 135.025 28.52 134.945 28.6L134.405 29.44C134.365 29.52 134.285 29.52 134.165 29.44C134.045 29.32 133.885 29.34 133.685 29.5C133.645 29.54 133.605 29.62 133.565 29.74C133.565 29.86 133.545 29.96 133.505 30.04C133.465 30.16 133.465 30.24 133.505 30.28C133.545 30.28 133.565 30.3 133.565 30.34C133.525 30.46 133.445 30.54 133.325 30.58C133.245 30.62 133.165 30.68 133.085 30.76C133.045 30.8 133.045 30.86 133.085 30.94C133.125 31.02 133.105 31.1 133.025 31.18C132.985 31.3 132.945 31.34 132.905 31.3C132.865 31.26 132.805 31.28 132.725 31.36C132.685 31.4 132.625 31.46 132.545 31.54C132.505 31.58 132.445 31.62 132.365 31.66C132.045 31.78 131.865 31.94 131.825 32.14C131.785 32.34 131.645 32.56 131.405 32.8C130.885 33.32 130.525 33.58 130.325 33.58ZM150.445 35.02C149.485 35.14 148.805 35 148.405 34.6C148.005 34.2 147.645 33.8 147.325 33.4C147.285 33.28 147.165 33.28 146.965 33.4C146.805 33.48 146.685 33.46 146.605 33.34C146.525 33.18 146.425 32.92 146.305 32.56C146.185 32.16 146.165 31.8 146.245 31.48C146.325 31.32 146.485 31.12 146.725 30.88C146.965 30.64 147.125 30.46 147.205 30.34C147.245 30.34 147.405 30.22 147.685 29.98C148.005 29.7 148.285 29.4 148.525 29.08C148.685 28.36 148.845 27.66 149.005 26.98C149.205 26.26 149.505 25.46 149.905 24.58V24.28C149.905 24.16 149.905 24.04 149.905 23.92C149.945 23.8 149.985 23.68 150.025 23.56C150.185 23.24 150.325 23.04 150.445 22.96C150.605 22.84 150.745 22.6 150.865 22.24C150.985 21.92 151.085 21.56 151.165 21.16C151.285 20.76 151.425 20.5 151.585 20.38C151.625 20.38 151.645 20.38 151.645 20.38C151.645 20.34 151.665 20.32 151.705 20.32C151.785 20.32 151.865 20.38 151.945 20.5C152.025 20.58 152.085 20.42 152.125 20.02L152.065 19.96C152.065 19.88 152.085 19.78 152.125 19.66C152.205 19.54 152.225 19.46 152.185 19.42V19.24C152.185 19 152.265 18.78 152.425 18.58C152.625 18.34 152.805 18.08 152.965 17.8C153.045 17.68 153.205 17.62 153.445 17.62C153.685 17.58 153.785 17.52 153.745 17.44L153.565 16.6C153.645 16.28 153.805 16.1 154.045 16.06H154.225C154.345 15.54 154.445 15.16 154.525 14.92C154.645 14.68 154.785 14.48 154.945 14.32L155.425 13.84C155.705 13.56 155.905 13.3 156.025 13.06C156.185 12.82 156.345 12.54 156.505 12.22C156.585 12.06 156.685 11.92 156.805 11.8C156.965 11.68 157.105 11.54 157.225 11.38C157.305 11.3 157.325 11.18 157.285 11.02C157.285 10.86 157.305 10.74 157.345 10.66C157.665 10.18 158.045 9.7 158.485 9.22C158.925 8.7 159.345 8.24 159.745 7.84C159.865 7.64 159.985 7.44 160.105 7.24C160.265 7.04 160.425 6.84 160.585 6.64C160.825 6.36 161.085 6.16 161.365 6.04C161.645 5.92 161.925 5.74 162.205 5.5C162.285 5.42 162.325 5.3 162.325 5.14C162.325 4.94 162.365 4.8 162.445 4.72C163.845 3.6 165.345 2.66 166.945 1.9C168.585 1.14 169.845 0.759999 170.725 0.759999C171.045 0.759999 171.345 0.779999 171.625 0.819998C171.945 0.859998 172.245 0.919998 172.525 0.999999H172.645C172.845 0.999999 173.045 1.04 173.245 1.12C173.445 1.2 173.625 1.28 173.785 1.36C173.945 1.36 174.145 1.4 174.385 1.48C174.585 1.56 174.705 1.68 174.745 1.84C174.785 2 174.745 2.12 174.625 2.2C174.585 2.24 174.525 2.24 174.445 2.2C174.365 2.16 174.285 2.14 174.205 2.14C174.125 2.14 174.045 2.1 173.965 2.02C173.885 1.94 173.805 1.88 173.725 1.84C173.565 1.84 173.405 1.86 173.245 1.9C173.125 1.94 172.985 1.96 172.825 1.96C172.385 1.96 172.105 1.92 171.985 1.84C171.865 1.72 171.625 1.7 171.265 1.78C171.225 1.78 171.105 1.8 170.905 1.84C170.705 1.88 170.565 1.9 170.485 1.9C169.045 2.26 167.785 2.86 166.705 3.7C165.625 4.5 164.665 5.4 163.825 6.4C163.025 7.4 162.245 8.36 161.485 9.28C161.125 10 160.765 10.58 160.405 11.02C160.365 11.06 160.325 11.04 160.285 10.96C160.245 10.88 160.205 10.88 160.165 10.96C160.045 11.08 159.945 11.28 159.865 11.56C159.825 11.8 159.745 12 159.625 12.16C159.585 12.2 159.545 12.2 159.505 12.16C159.505 12.12 159.465 12.1 159.385 12.1C159.265 12.1 159.245 12.18 159.325 12.34C159.445 12.46 159.465 12.56 159.385 12.64C158.905 13.32 158.305 14.02 157.585 14.74C156.905 15.46 156.285 16.22 155.725 17.02C155.085 18.02 154.465 19 153.865 19.96C153.265 20.88 152.685 21.8 152.125 22.72C152.085 22.76 152.025 22.82 151.945 22.9C151.865 22.94 151.805 23 151.765 23.08C151.725 23.12 151.725 23.18 151.765 23.26C151.805 23.3 151.805 23.36 151.765 23.44C151.365 24.08 151.085 24.6 150.925 25C150.765 25.36 150.585 25.74 150.385 26.14C150.305 26.34 150.225 26.6 150.145 26.92C150.105 27.24 150.045 27.48 149.965 27.64C150.085 27.48 150.465 27.08 151.105 26.44C151.785 25.76 152.585 24.96 153.505 24.04C154.465 23.12 155.405 22.22 156.325 21.34C156.445 21.22 156.565 21.06 156.685 20.86C156.805 20.66 156.925 20.52 157.045 20.44C157.325 20.16 157.625 19.94 157.945 19.78C158.265 19.58 158.565 19.36 158.845 19.12C159.045 18.96 159.225 18.86 159.385 18.82C159.585 18.78 159.765 18.7 159.925 18.58C160.005 18.54 160.025 18.5 159.985 18.46C159.945 18.38 159.965 18.32 160.045 18.28C160.485 18.04 160.725 17.9 160.765 17.86C160.805 17.82 160.965 17.76 161.245 17.68C161.685 17.52 162.185 17.44 162.745 17.44C163.105 17.44 163.325 17.46 163.405 17.5C163.605 17.62 163.825 17.72 164.065 17.8C164.305 17.88 164.425 18.12 164.425 18.52C164.425 18.72 164.445 18.84 164.485 18.88C164.525 18.88 164.545 19.02 164.545 19.3C164.545 19.5 164.505 19.82 164.425 20.26C164.385 20.7 164.345 21.04 164.305 21.28L164.065 22.78C164.025 22.9 164.025 23.02 164.065 23.14C164.105 23.26 164.105 23.38 164.065 23.5C164.025 23.54 163.965 23.6 163.885 23.68C163.805 23.76 163.745 23.84 163.705 23.92C163.425 23.96 163.225 24.1 163.105 24.34C163.025 24.54 163.125 24.62 163.405 24.58C163.365 24.62 163.285 24.68 163.165 24.76C163.085 24.84 163.025 24.92 162.985 25C162.945 25.04 162.965 25.08 163.045 25.12C163.125 25.12 163.085 25.26 162.925 25.54C162.805 25.74 162.685 26 162.565 26.32C162.445 26.64 162.325 26.9 162.205 27.1C162.085 27.26 161.965 27.36 161.845 27.4C161.765 27.44 161.665 27.54 161.545 27.7C161.505 27.78 161.485 27.86 161.485 27.94C161.485 28.02 161.445 28.1 161.365 28.18C161.325 28.26 161.245 28.32 161.125 28.36C161.045 28.4 160.965 28.46 160.885 28.54C159.605 30.06 158.045 31.44 156.205 32.68C154.405 33.92 152.485 34.7 150.445 35.02ZM150.625 33.88C150.985 33.88 151.505 33.8 152.185 33.64C152.865 33.44 153.485 33.18 154.045 32.86C154.245 32.78 154.425 32.68 154.585 32.56C154.785 32.4 154.965 32.24 155.125 32.08C155.285 31.92 155.385 31.76 155.425 31.6C155.585 31.36 155.825 31.1 156.145 30.82L156.445 30.64C156.605 30.48 156.765 30.2 156.925 29.8H157.045C157.205 29.76 157.305 29.68 157.345 29.56L157.645 29.44C157.645 29.32 157.685 29.22 157.765 29.14C157.845 28.98 157.985 28.8 158.185 28.6C158.385 28.36 158.485 28.16 158.485 28C158.485 27.96 158.445 27.9 158.365 27.82C158.405 27.74 158.485 27.6 158.605 27.4C158.765 27.16 158.865 27 158.905 26.92L159.265 26.86L159.445 26.5V26.38C159.965 26.38 160.185 26.18 160.105 25.78L160.525 24.64C160.605 24.32 160.725 24.1 160.885 23.98C160.885 23.82 160.905 23.72 160.945 23.68C160.985 23.64 161.025 23.56 161.065 23.44C161.185 23.12 161.305 22.7 161.425 22.18C161.585 21.66 161.665 21.4 161.665 21.4L161.485 21.04C161.485 20.96 161.425 20.84 161.305 20.68C161.225 20.52 161.205 20.38 161.245 20.26C161.325 19.98 161.465 19.8 161.665 19.72C161.905 19.64 161.945 19.58 161.785 19.54H161.725C161.605 19.54 161.465 19.56 161.305 19.6C161.185 19.64 161.025 19.7 160.825 19.78C160.585 19.86 160.365 19.88 160.165 19.84C159.965 19.8 159.805 19.82 159.685 19.9C159.285 20.02 158.865 20.22 158.425 20.5C157.985 20.74 157.505 21.08 156.985 21.52C156.945 21.56 156.885 21.64 156.805 21.76C156.725 21.88 156.645 21.98 156.565 22.06C156.525 22.1 156.445 22.12 156.325 22.12C156.245 22.12 156.165 22.16 156.085 22.24C156.045 22.28 156.045 22.34 156.085 22.42C156.125 22.5 156.125 22.58 156.085 22.66C156.005 22.7 155.925 22.74 155.845 22.78C155.765 22.82 155.685 22.88 155.605 22.96L155.425 23.26C154.745 24.02 153.905 24.86 152.905 25.78C151.945 26.7 151.125 27.6 150.445 28.48L159.085 25.18C159.325 25.06 159.545 25 159.745 25C159.825 24.96 159.925 25 160.045 25.12C160.085 25.2 160.045 25.28 159.925 25.36C159.845 25.44 159.785 25.46 159.745 25.42L159.445 25.36C159.405 25.4 159.325 25.46 159.205 25.54C159.125 25.62 159.045 25.66 158.965 25.66C158.805 25.74 158.705 25.78 158.665 25.78C158.625 25.82 158.545 25.84 158.425 25.84C158.305 25.84 158.225 25.86 158.185 25.9C158.105 25.94 158.045 25.98 158.005 26.02C157.965 26.02 157.905 26.06 157.825 26.14C156.905 26.54 155.905 27 154.825 27.52C153.745 28 152.745 28.48 151.825 28.96C150.665 29.6 149.865 30.22 149.425 30.82C148.985 31.38 148.765 31.88 148.765 32.32C148.765 32.68 148.865 33 149.065 33.28C149.265 33.52 149.505 33.68 149.785 33.76C150.065 33.84 150.345 33.88 150.625 33.88Z" fill="black"/>
</svg>
